<mxfile modified="2021-05-14T01:49:08.158Z" host="app.diagrams.net" agent="5.0 (Macintosh)" etag="VexvFOUIe2Zv8HSYH7xQ" version="14.6.11" type="github">
  <diagram id="Ht1M8jgEwFfnCIfOTk4-" name="Page-1">
    <mxGraphModel dx="946" dy="583" grid="1" gridSize="10" guides="1" tooltips="1" connect="1" arrows="1" fold="1" page="1" pageScale="1" pageWidth="1169" pageHeight="827" math="0" shadow="0">
      <root>
        <mxCell id="0" />
        <mxCell id="1" parent="0" />
        <mxCell id="kM9Xeybq4EzYfr0AlQyo-33" value="Region" style="outlineConnect=0;gradientColor=none;html=1;whiteSpace=wrap;fontSize=12;fontStyle=0;shape=mxgraph.aws4.group;grIcon=mxgraph.aws4.group_region;strokeColor=#879196;fillColor=none;verticalAlign=top;align=left;spacingLeft=30;fontColor=#879196;dashed=1;" vertex="1" parent="1">
          <mxGeometry x="480" y="210" width="400" height="620" as="geometry" />
        </mxCell>
        <mxCell id="kM9Xeybq4EzYfr0AlQyo-13" value="AWS Cloud" style="points=[[0,0],[0.25,0],[0.5,0],[0.75,0],[1,0],[1,0.25],[1,0.5],[1,0.75],[1,1],[0.75,1],[0.5,1],[0.25,1],[0,1],[0,0.75],[0,0.5],[0,0.25]];outlineConnect=0;gradientColor=none;html=1;whiteSpace=wrap;fontSize=12;fontStyle=0;shape=mxgraph.aws4.group;grIcon=mxgraph.aws4.group_aws_cloud_alt;strokeColor=#232F3E;fillColor=none;verticalAlign=top;align=left;spacingLeft=30;fontColor=#232F3E;dashed=0;" vertex="1" parent="1">
          <mxGeometry x="360" y="200" width="860" height="640" as="geometry" />
        </mxCell>
        <mxCell id="kM9Xeybq4EzYfr0AlQyo-17" style="edgeStyle=orthogonalEdgeStyle;rounded=0;orthogonalLoop=1;jettySize=auto;html=1;" edge="1" parent="1" source="kM9Xeybq4EzYfr0AlQyo-2" target="kM9Xeybq4EzYfr0AlQyo-5">
          <mxGeometry relative="1" as="geometry">
            <Array as="points">
              <mxPoint x="258" y="446" />
            </Array>
          </mxGeometry>
        </mxCell>
        <mxCell id="kM9Xeybq4EzYfr0AlQyo-8" value="Availability zone A" style="outlineConnect=0;gradientColor=none;html=1;whiteSpace=wrap;fontSize=12;fontStyle=0;shape=mxgraph.aws4.group;grIcon=mxgraph.aws4.group_availability_zone;strokeColor=#545B64;fillColor=none;verticalAlign=top;align=left;spacingLeft=30;fontColor=#545B64;dashed=1;" vertex="1" parent="1">
          <mxGeometry x="610.5" y="210" width="229.5" height="300" as="geometry" />
        </mxCell>
        <mxCell id="kM9Xeybq4EzYfr0AlQyo-14" value="Auto Scaling group" style="points=[[0,0],[0.25,0],[0.5,0],[0.75,0],[1,0],[1,0.25],[1,0.5],[1,0.75],[1,1],[0.75,1],[0.5,1],[0.25,1],[0,1],[0,0.75],[0,0.5],[0,0.25]];outlineConnect=0;gradientColor=none;html=1;whiteSpace=wrap;fontSize=12;fontStyle=0;shape=mxgraph.aws4.groupCenter;grIcon=mxgraph.aws4.group_auto_scaling_group;grStroke=1;strokeColor=#D86613;fillColor=none;verticalAlign=top;align=center;fontColor=#D86613;dashed=1;spacingTop=25;" vertex="1" parent="1">
          <mxGeometry x="690" y="242.5" width="130" height="237.5" as="geometry" />
        </mxCell>
        <mxCell id="UEzPUAAOIrF-is8g5C7q-128" style="edgeStyle=orthogonalEdgeStyle;rounded=0;orthogonalLoop=1;jettySize=auto;html=1;startArrow=open;startFill=0;endArrow=open;endFill=0;strokeWidth=2;strokeColor=#808080;" parent="1" source="UEzPUAAOIrF-is8g5C7q-109" target="kM9Xeybq4EzYfr0AlQyo-2" edge="1">
          <mxGeometry relative="1" as="geometry">
            <Array as="points">
              <mxPoint x="190" y="516" />
            </Array>
          </mxGeometry>
        </mxCell>
        <mxCell id="UEzPUAAOIrF-is8g5C7q-109" value="data lake CLI" style="outlineConnect=0;gradientColor=none;fontColor=#545B64;strokeColor=none;fillColor=#879196;dashed=0;verticalLabelPosition=bottom;verticalAlign=top;align=center;html=1;fontSize=12;fontStyle=0;aspect=fixed;shape=mxgraph.aws4.illustration_desktop;pointerEvents=1;labelBackgroundColor=#ffffff;" parent="1" vertex="1">
          <mxGeometry x="90" y="331" width="100" height="91" as="geometry" />
        </mxCell>
        <mxCell id="kM9Xeybq4EzYfr0AlQyo-2" value="" style="outlineConnect=0;fontColor=#232F3E;gradientColor=none;fillColor=#232F3E;strokeColor=none;dashed=0;verticalLabelPosition=bottom;verticalAlign=top;align=center;html=1;fontSize=12;fontStyle=0;aspect=fixed;pointerEvents=1;shape=mxgraph.aws4.internet_alt1;" vertex="1" parent="1">
          <mxGeometry x="219.41" y="496" width="78" height="48" as="geometry" />
        </mxCell>
        <mxCell id="kM9Xeybq4EzYfr0AlQyo-3" value="" style="shape=image;verticalLabelPosition=bottom;labelBackgroundColor=#ffffff;verticalAlign=top;aspect=fixed;imageAspect=0;image=data:image/png,iVBORw0KGgoAAAANSUhEUgAAAEwAAABRCAIAAAD3vdc5AAAYcGlDQ1BJQ0MgUHJvZmlsZQAAWIWVWQc8le3fv+6zz7HPsffeZO+9994kHOtYccxQIskqUSFKJZmVSqESkYZSRg9JEsmoFCoqI+9t1PO8z//9vO/nvT6f676+53f9rt+61v07NwBcnb6RkWEIRgDCI2KoDqYG/G7uHvzYSQABbsAMFADClxwdqW9nZwXg8rv972VpEOaGy3OZDVn/2f+/FqJ/QDQZAMgLxn7+0eRwGN8FAJVGjqTGAIAxgulC8TGRGzgYxsxU2EAYJ2/goC18dAP7beGKTR4nB0MYNwOAo/X1pQYBQN8J0/njyEGwHPp3cB8xwp8SAbP+gLEOOdjXHwAuNZhHOjx89waGKxCH+SNhnAtjNb9/yAz6b/L9/sj39Q36g7f82iw4I0p0ZJjvnv9naP7vEh4W+1uHKFxpg6lmDhv+wzEcCt1tuYFpYTwb4WdjuxFrGP+g+G/FHQAEITjWzHmLH8FNjjaE4wdYYSzn72tkCWNuGJtEhNlYbdP9Aikm5jCGVwsigRJj7rQ9NjMg2thxW+Yp6m4H2984kGqovz32si91U+8Gf2dsqLP+tvyh4ADz3/K/JQY7ucKYAACSEEdxsYExPYyZo0MdLbd4kIKJwYY2v3mosQ4b9gvDWC0gwtRgSz7SK5Bq4rDNHxke/dtfZEYwxdxmGxfHBDuZbcUHWUv23bSfHcaNARH6zr/lBES7Wf32xT/AyHjLd+SzgAjnbX+Ro5ExBg7bY+cjw+y2+VG4gDDTDbogjDmj4xy3x6K0YuDFuSUfZRUZY+e0ZSfKJ8TXwm7LHlQcsAKGwAjwg1i4+oHdIARQns02zcK/tnpMgC+ggiAQAGS2Kb9HuG72RMBPR5AIPsEoAET/GWew2RsA4mD62h/q1lMGBG72xm2OCAVTMA4HliAM/h27OSrijzYX8A6mUP5DOxm2NQyuG33/SdOHKVbblNjfcvkZfnNijDFGGDOMCUYCxYnSQWmirOCnHlwVUGoo9d/W/s2PnkL3od+iB9Bj6Je7KGnUf9liDcZg+SbbHvv902OUKCxTGWWA0oalw5JRrChOIINSgvXoo3Rhzcow1XDb7g3f+f8HP/948I+Yb/Ph5fAIPBteDy/+75H0kvTKf6RsRPSf8dmy1e9PVA3/9Pxbv+E/4uwPt5b/5kRmIhuQD5HtyC5kC7IJ8CPbkM3IbuSdDfxnDb3bXEO/tTls2hMKy6H8hz7fbZ0bkYyWq5N7L7e63QdiAhJiNjaY4e7IPVRKUHAMvz58CwTwm0eQZaX5FeQU5AHYuFO2jqmvDpt3BcTa8zeNfBAA1XkA8Mt/08K/AnAF3uP81n/TRLzhbYYBoHqKHEuN26KhNh5o+DRggHcUB+AFQkAc9kgBqABNoAeMgQWwBU7AHXjDcQ6G1zMVxINkkAoyQA44Ck6AEnAGnAfV4BK4BppAC2gHD8AT0AsGwCt4/UyCj2AeLIEVCIKwEB1EgjggPkgEkoIUIDVIBzKGrCAHyB3ygYKgCCgWSoYOQDlQAVQCnYNqoKvQTagd6oL6oJfQOPQe+gItI5AIWgQzggchitiBUEPoIywRToidiCBEFCIRkY44gihGlCMuIhoR7YgniAHEGOIjYhEJkDRIVqQAUgaphjRE2iI9kIFIKnIfMhtZiCxHXkbegmf6OXIMOYv8icKgSCh+lAy8hs1QzigyKgq1D5WLKkFVoxpRnajnqHHUPOoXmg7NjZZCa6DN0W7oIHQ8OgNdiK5E30Dfh3fTJHoJg8GwYsQwqvBudMeEYJIwuZjTmHrMXUwfZgKziMViObBSWG2sLdYXG4PNwJ7EXsS2Yfuxk9gfOBocH04BZ4LzwEXg0nCFuFpcK64fN41bwTPiRfAaeFu8P34PPg9fgb+F78FP4lcITAQxgjbBiRBCSCUUEy4T7hNGCF9paGgEadRp7GkoNPtpimmu0DyiGaf5SUuklaQ1pPWijaU9QltFe5f2Je1XOjo6UTo9Og+6GLojdDV09+hG6X7Qk+hl6c3p/elT6EvpG+n76T8z4BlEGPQZvBkSGQoZGhh6GGYZ8YyijIaMvoz7GEsZbzK+YFxkIjHJM9kyhTPlMtUydTHNELFEUaIx0Z+YTjxPvEecICFJQiRDEpl0gFRBuk+aZMYwizGbM4cw5zBfYn7GPM9CZFFicWFJYCllucMyxopkFWU1Zw1jzWO9xjrIuszGw6bPFsCWxXaZrZ/tOzsXux57AHs2ez37APsyBz+HMUcoRz5HE8drThSnJKc9ZzxnGed9zlkuZi5NLjJXNtc1rmFuBLcktwN3Evd57m7uRR5eHlOeSJ6TPPd4ZnlZefV4Q3iP87byvucj8enwUfiO87XxfeBn4dfnD+Mv5u/knxfgFjATiBU4J/BMYEVQTNBZME2wXvC1EEFITShQ6LhQh9C8MJ+wtXCycJ3wsAheRE0kWKRI5KHId1ExUVfRQ6JNojNi7GLmYolidWIj4nTiuuJR4uXif0lgJNQkQiVOS/RKIiSVJYMlSyV7pBBSKlIUqdNSfdJoaXXpCOly6RcytDL6MnEydTLjsqyyVrJpsk2yn3cI7/DYkb/j4Y5fcspyYXIVcq/kifIW8mnyt+S/KEgqkBVKFf5SpFM0UUxRbFZcUJJSClAqUxpSJilbKx9S7lBeU1FVoapcVnmvKqzqo3pK9YUas5qdWq7aI3W0uoF6inqL+k8NFY0YjWsac5oymqGatZozWmJaAVoVWhPagtq+2ue0x3T4dXx0zuqM6Qro+uqW677VE9Lz16vUm9aX0A/Rv6j/2UDOgGpww+C7oYbhXsO7RkgjU6Nso2fGRGNn4xLjURNBkyCTOpN5U2XTJNO7ZmgzS7N8sxfmPOZk8xrzeQtVi70WnZa0lo6WJZZvrSStqFa3rBHWFtbHrEdsRGwibJpsga257THb13ZidlF2t+0x9nb2pfZTDvIOyQ4PHUmOuxxrHZecDJzynF45izvHOne4MLh4udS4fHc1ci1wHXPb4bbX7Yk7pzvFvdkD6+HiUemx6GnsecJz0kvZK8NrcKfYzoSdXd6c3mHed3Yx7PLd1eCD9nH1qfVZ9bX1Lfdd9DP3O+U3TzYkF5E/+uv5H/d/H6AdUBAwHagdWBA4E6QddCzofbBucGHwLMWQUkJZCDELORPyPdQ2tCp0Pcw1rD4cF+4TfjOCGBEa0bmbd3fC7r5IqciMyLEojagTUfNUS2plNBS9M7o5hhl+ee+OFY89GDsepxNXGvcj3iW+IYEpISKhe4/knqw904kmiReSUEnkpI5kgeTU5PG9+nvP7YP2+e3rSBFKSU+Z3G+6vzqVkBqa+jRNLq0g7dsB1wO30nnS96dPHDQ9WJdBn0HNeHFI89CZTFQmJfNZlmLWyaxf2f7Zj3PkcgpzVnPJuY8Pyx8uPrx+JPDIszyVvLKjmKMRRwfzdfOrC5gKEgsmjlkfazzOfzz7+LcTu050FSoVnikiFMUWjRVbFTefFD559ORqSXDJQKlBaf0p7lNZp76f9j/dX6ZXdvkMz5mcM8tnKWeHzpmeaywXLS88jzkfd36qwqXi4QW1CzWVnJU5lWtVEVVj1Q7VnTWqNTW13LV5dYi62Lr3F70u9l4yutR8WebyuXrW+pwr4ErslQ9Xfa4OXrO81tGg1nD5usj1UzdIN7IbocY9jfNNwU1jze7NfTctbnbc0rx147bs7aoWgZbSOyx38loJremt622JbYt3I+/Otge1T3Ts6nh1z+3eX532nc/uW95/9MDkwb2H+g/bHmk/aunS6Lr5WO1x0xOVJ43dyt03nio/vfFM5Vljj2pPc696760+rb7Wft3+9udGzx/8Zf7XkwGbgb5B58GhF14vxob8h2Zehr1cGI4bXnm1fwQ9kv2a8XXhKPdo+RuJN/VjKmN3xo3Gu986vn01QZ74+C763epk+hTdVOE033TNjMJMy3uT970fPD9Mfoz8uDKb8Ynp06nP4p+vz+nNdc+7zU8uUBfWv+R+5fha9U3pW8ei3eLoUvjSyvfsHxw/qn+q/Xy47Lo8vRK/il0tXpNYu/XL8tfIevj6eqQv1XfzVQAJV0RgIABfqgCgcweA1AunCZ5bOd92QcIvHwi4dYFkoY+IdPhG7UFloE0wSMwTbDEuAm9FkKDB0szS9tM10VcxVDLWMzUTO0hPmHtZhljfsM2wf+RY4FzmWuNB8GL5CPx0AkRBohCrMLsImyi7GLc4jwS/JL+UoLSwjKis2A5pOTl5RQUVRQ0lXWVjFXNVczUTdRMNE01DLX1tLR0NXSU9WX1RAx5DZiOC0brxV5Mp05dm3eYtFtWWx6xSrENs3GyN7ZTtxRy4HBmdcM5IF8gV4YZyx3swenJ4Ce+U8ZbYJezD58vpx0Im+RMDSIGsQVzBghTpENVQkzCXcEpE8u6CyIqos9Ti6PyY3NisuOz4IwnFe6oTW5Ne7QX7pFN27T+Z+uqAYPrug+2HMJlCWQrZBjmOuYGHE4/k51UfvZs/XLB4nOmETKFFUWDxgZNlJTdL+0+9O714BnuW45xkudZ52wq/CzGVB6sKq6trbtY+rhu++OHSz3rcFbar4td0G9yvR93IajzdVN/cdrPrVs/t3pYndzpar7aV3k1p39WhcY94b6rz5v3aB6ce5jxK6PJ7bP5Etpu+e/bp/WeneiJ7DfpIfRP9156n/mU/IDKIGnz/onuo/mXBcMwrlxG115yvV0dH37SPXRjPert7wvmd1qQwvMqWpv+auf6+6EPKx7BZ8ify58i5nPkbC3Nf9b6dWyJ9L/4ptfxsNeWXxvr6P+ZfATmDKkBbYlgwr7ENuFx8EMGIRpKWgXaVbpp+iGGI8Q3TO+In0lfmJZY11hW2NfZfHGucS1xfued4pnhH+Pr57wvcFKwUyhEOE7ESlRTDi30Q75KokcyWokhbysjI0snO7eiTuy5fpJCsSFayVzZQUVAVUCOqrat/1hjR7NJq1C7XydWN1/PRtzBQMOQ0Qhi9N35mcsU03yza3MlCxZLNcsXqjfU9m1rbfLsk+0AHR0d9J3lnAReSK9Z12e2j+4hHt+cdr/qdZ72P7Trkk+xL9aOQff09ApwC7YNsgi0pliFmoZphsuECESy7aSIRkatRP6g/o9di0XHEeKEEjT1OidFJhckte6dSaPbzpcqkaR+wSfc7GJ9x+FBlZlvWcPb3XObDCkfs8yKOHs6vK3h07N3x9ULOIuViu5OhJQdLz5xqPt1bNnPm1znmconz2hV2F8iVsVWHqovhc667bu4S8bJiveOVqKt51+oaOq+P3PjShGnmuCl5S+O2RYvbncDWmLaUu6ntBzoO3svoPHQ/80H2w9xHh7sOPz785HB37tOcZ1k9h3rT+1L79z6P+ytqYPdg5IuYoaSXB4ePvSofaXj9YPTlm0/j4C1xQvCd/KTOlPm038zZ958+Ks8mfWr9/GtecyHuy+Wv7xbZlyy/p/xo+Dm9wr3qsJb9q3N7/o0R+sgdyM+odvQhjCNWHLuAu4nPIDjQcNOM0p6nC6dXZ0AwtDOmM1kQGYi9pKPMtiwMLE9Zs9lM2CH2Zo4ITiHOIa4cbh3uTzylvGa83/jK+M34PwscF9QQHBHaK8wv3CriLbIqWiymJNYtHiC+KnFMUkqyTcpRako6VUZEZkg2d4fBjm9yVfKeCnQKbYqRSgJK/cppKgoq46p5atpqn9RLNcw1FjXPa9lr/dKu03HXxere0CPrE/XvGkQa8hv2GqUZKxlPm5SY2sLvHbfNoyykLN5Zlll5WLNaP7cpsHWwI9kN2p908HYUdvzgdNU50cXYlcF12K3SPdrDwJPWc9DrzM5gbwXvlV33ffJ9vfwk/JbInf7HAnwDFYNQQYPBtZSUEKdQ6TB02JvwWxHFu+MjXaM0qLzRqOjZmIHY9rj6+LKEvD2pifFJocn+e3fuc0tx2u+Qap9mf8Ah3emge8bOQwGZoVnR2Sk5mbkFh8uO1OQ1Hr2X31cweuzzCVShRJFX8dGT90tWTsme9is7cebx2dVyhfMBFSUXeqpQ1Vo18bX1dR8vSV4Oqa+9MndNpWH/9e5Gjqaw5s5bfLdTWt62WrW1tMt3XOyUun/1ocGj4ccJ3XxPe3sO9zk9Fx0Agx+H3g1/eA3eiIzvmqidQs8kfgSfKubJX3WX1H46rxZvzP/Wf38bBaMCwIlDAGz8n+NQA0DuRQDE9gDABueednQAOKkDhIApgBY7AGSh/ef+gODEkwBIgAdIAjVgBueXYXBOWQTqQReYAGsQO6QMOULR0AmoGXoN53zSCBdEKqIeMYpkQBog45GXkFNwluaFKkW9gjMxH/QF9CeMCiYV8wzLgw3HtuFIOAquHc+Jj8X3ExQJRYRVGjLNU1p12mo6drpcegR9Ev13hliGJcZEJogpm8hKrCCpkXqZQ1iwLBdYjVmn2DLZpdh7OWI4OThbufy5abiv8XjwInkv8XnCGUGfQJ6grRCT0HPhIhFPUQHRKbGL4tESGpKQZJdUvrQnvDrnZft3tMhVyhco7FOkKDkqa6jwqUKqY2ot6sc1QjS1tei1RrRrdGJ0dfVwen36DQbXDZuMbhm3mtwz7TLrMR+0GLWctlqwXrHF2bHaizqoOVo5kZ2TXYpdW91mPEie+l6RO8u9B3wIvvp+SeRm/++BakFJwe0hhFDnsIrwxd1mkWVRc9FaMTmxo/FKCUf3LCS5Jj/Yp53SmmqZNpGelaGdCbL6cq4cPpVXkG92DHn8fmF+cUCJ4SnpMsGzIuVKFTaVUdWltU8ugXrVqzYN7jeCm5Jvnrh97U5/21IHb6fZg5hHZx8/617rkenb+fzIwN0h0jB55NLo7Dj3hNqk3rT8e/oPL2aPfN4x175g9qXzm8JiydLyD/ufF5YXVjXWUn7d3Tw/tuafCM+/BFAFJsAVhIB94DioA51gFPyASJAcZANFQEehBuglAiAk4Cw/DXEV8RbO462Q6cg25ApKG3UA1Y1mRweiGzF4jDemEcuIDcM+wUnj8nCLeC/8A4IsoYgGSRNFM07rTPuYzpCulV6L/g6cxT5itGcchfPUdeJxkizpKXMEnHk2s/qy0bA1swdysHI85NzDJc01zl3EY8uL4+3g289vIIAReCpYKOQrLCu8KtItWiYWJW4swSXxRfKx1HnpFBlPWc0dEnLs8nj5VYU5xQmlF8qPVW6rXlQrUT+kQdX01DLUltRh1FnUHdZr1a83uGrYYNRkfNukzbTT7LF5r8ULyzdW09YLNit2OHtWBzFHdSdrZ3+Xva4lbjfdhz3WvAR3WnjH7Drr0+MHkVX8IwJqAqeCRSkhIVdDl8NNIwp3z0RpUfdGt8Wi4qziixKmEtWTjiRP7zNOqU6lT9tzYBo+T3ozLbIe5pjldh9xyBvLTznGe/xuYWAx/cnmUv/TpLIHZ/eWq5z/cuFqVWyNVh3m4sDlC1eSr3ldV2mkb5q4ef32gTs2bex3xztqOqkPtB5huwaf1Dzd3+PVp/NcZIBp8NGQ88vJV4mvmUevjTmNr05UT7pPM8x0fcictfzMOPdi4ezXkEWV74gfPculq0G/FLfnHwkwgHbzBBAHKvAKcAPh4CA4A26DYXj/C0IWUCxUAQ0iaBBG8M7vQOKQ9sgzyC8oC1QVGo+mot9gnODdboMdwJFxP/GFBHXCJM1JWj3aEboken76LoZ4RknGCaYzRD+SBOk780OWMtYkNk92PQ4pTnYuGm4E9yrPMu8qPxDAwm+gPMKyItqiDmJB4vslTkregPPueVnGHQpyrvL7FCoUe5RWVCRU3dUK1Ps1mbXctSt05vS09Q8bvDFSNM4xGTfTMi+0+GJlZ33JltYuzP6xo6RTjvMHVwu3Wg+8J8XrobforoM+k36G5MoAZKB/0D2KaEhG6Ey4VUR9JEtUAnUsxij2cjx7wr49H5Pc4H2qklKVypF2JB11MDnjS6ZH1tXs9Vynw1VHlo865l8+RjhOOfGgSKo49+RcqeupO2WiZ/Lhs9//fPcFzcqqaqaaxNqpi46XWupFr+RdXWrwvv6gUabpaPP8Lfvbl+8QWgPbWtuJHQH3Gu+jHtg9LH008VjiCaW78ul4D2evfd/B/uvP3w4QBuVeOAxRXx4Zrnl1b2Tg9dTowpvVcegtdgLzDjMJJpenPk2Pzjx93/yh/GPmbMQn689Sc9i5N/PNC1lfPL5KfP3yrWUxbcnoO+Z754+Un5o/F5YvrHisElYb18i/6H5dW3ffmP/oQEWFzesDojUAAD26vv5VFABsAQBr+evrK+Xr62vn4WRjBIC7YVvfkzbvGkYAznJtoL4r7wX+/S1n61vTP/KYf7dg8yba1ArfRJstfCuB/wIDd97KNrRe7AAAAKJlWElmTU0AKgAAAAgABgEGAAMAAAABAAIAAAESAAMAAAABAAEAAAEaAAUAAAABAAAAVgEbAAUAAAABAAAAXgEoAAMAAAABAAIAAIdpAAQAAAABAAAAZgAAAAAAAABIAAAAAQAAAEgAAAABAAOShgAHAAAAEgAAAJCgAgAEAAAAAQAAAEygAwAEAAAAAQAAAFEAAAAAQVNDSUkAAABTY3JlZW5zaG90ZbpqEAAAAAlwSFlzAAALEwAACxMBAJqcGAAAA09pVFh0WE1MOmNvbS5hZG9iZS54bXAAAAAAADx4OnhtcG1ldGEgeG1sbnM6eD0iYWRvYmU6bnM6bWV0YS8iIHg6eG1wdGs9IlhNUCBDb3JlIDUuNC4wIj4KICAgPHJkZjpSREYgeG1sbnM6cmRmPSJodHRwOi8vd3d3LnczLm9yZy8xOTk5LzAyLzIyLXJkZi1zeW50YXgtbnMjIj4KICAgICAgPHJkZjpEZXNjcmlwdGlvbiByZGY6YWJvdXQ9IiIKICAgICAgICAgICAgeG1sbnM6dGlmZj0iaHR0cDovL25zLmFkb2JlLmNvbS90aWZmLzEuMC8iCiAgICAgICAgICAgIHhtbG5zOmV4aWY9Imh0dHA6Ly9ucy5hZG9iZS5jb20vZXhpZi8xLjAvIj4KICAgICAgICAgPHRpZmY6UmVzb2x1dGlvblVuaXQ+MjwvdGlmZjpSZXNvbHV0aW9uVW5pdD4KICAgICAgICAgPHRpZmY6WVJlc29sdXRpb24+NzI8L3RpZmY6WVJlc29sdXRpb24+CiAgICAgICAgIDx0aWZmOlhSZXNvbHV0aW9uPjcyPC90aWZmOlhSZXNvbHV0aW9uPgogICAgICAgICA8dGlmZjpPcmllbnRhdGlvbj4xPC90aWZmOk9yaWVudGF0aW9uPgogICAgICAgICA8dGlmZjpDb21wcmVzc2lvbj4xPC90aWZmOkNvbXByZXNzaW9uPgogICAgICAgICA8dGlmZjpQaG90b21ldHJpY0ludGVycHJldGF0aW9uPjI8L3RpZmY6UGhvdG9tZXRyaWNJbnRlcnByZXRhdGlvbj4KICAgICAgICAgPGV4aWY6UGl4ZWxZRGltZW5zaW9uPjgxPC9leGlmOlBpeGVsWURpbWVuc2lvbj4KICAgICAgICAgPGV4aWY6VXNlckNvbW1lbnQ+U2NyZWVuc2hvdDwvZXhpZjpVc2VyQ29tbWVudD4KICAgICAgICAgPGV4aWY6UGl4ZWxYRGltZW5zaW9uPjc2PC9leGlmOlBpeGVsWERpbWVuc2lvbj4KICAgICAgPC9yZGY6RGVzY3JpcHRpb24+CiAgIDwvcmRmOlJERj4KPC94OnhtcG1ldGE+CgRTWNoAABvySURBVHgB3ZwJvBXVnedrr7r3vv3xQDYfAi4I8rQ1RtwIihqNUUdnTDp8enFi7HRPJnZnMZrp+UzSbWuS6bh0FjuayTqJhkybDlHEDQmJrUERUdCRHcQAD3jbfffe2mu+/6p73yLvCi+JDZ+pz+PeqlOnTp3ffzu/8z/noq7qT6JQMWzFNJStu/p+vmz50ytX9fYPKkmsKFr6p1SPJP3W9Nr16G9VHX39h75Kstcf0myUlhuaEkWKocw7dc7V11z5vvPn5xylPKCYqvypT/Umtq0EofLww4/9+KGlPb19ulMwTAt4sYAcdWiJEiljg0nqdWJUA3/4C1XRdF33vApflqW5fT2abcyfe+onP/HxrlM7BvoVNU7UZ4qJ7yt333vfiuWPmfkG08klilpxfd2wkkNAgi8+SmDqiUfT9CiKDEPXNC0IK4auGqrqVkqFnPn5z91y3oLTdPA8NZh88Qv3/urZXxcKjbGieoGfqAC0A3+0zmrGotYxy3rl9Tr3ByvXtDiMEL6CiamxpvEVx0Fg6ImaRHfc/vcLzjlJ72s+5ckVj2uOAzav5NpNzaEbKLqpalrCE7U/5KRqKoUoEzzHziGRQ9eSJFZ13XSsKPASzzfzORQWhuGLL60788zzVeXcJWY+n+qa+jyhxXgwNqkZqbDTwqrYRZsiqbGOo+WTookk0Uw9jmPFqyiWZRmm75boqGmYYeDPOelkkGh4ZuCHAsAw0KdumTyAbARLkkJSBZ5aPR8bJLYi9f/dD7FR+hoBVo/tHIB9rFfVFd0IKVX1117daBj5gsgAO1RVvpUkjPA60SShdViNKUxBIJXHOnh8rOJ3vaz63qxbMc4pxoi7KWGU6IauK5EWCVzKs6oqUKSr2acglmc4sPjshE/17ePK0J2jcxLHWYfE9FAgR9prGRqiBMdTTCdzvDG7V0MIrur9TIfHGMha31FQ5k/VgtSyCJVcAnIYTHa7apnq2GZZa/NY+c4UkGFQq2N4ao1JpgxsVH0HTR4K4xjV4aEdTUswVRiaHGOArAXUYUijzCB97Nj5SDKLq+ot6xfQUgULRlHuGCDfEQAPZ9J5x1r/jjczQKhhKP6nL0/gLUO9MDLMNe0NlQ85cWrfw8UwnjRMD5cc5TPpuYScQ4Nipoz/X3wy09DblJkwnteGbqPKVOraoNxIDZxv0WHWItMwXcYl5BeH8CqZrxhQorRcRihuBFBKVdEjeTqGXdKMmBC1YzH5RG4iZ74TJZB3pDNVLa7IW6RBDvnMRu30svZRNU3RnjrKG2sV5IY8S/t8jtcnh1uBH9DMCJYgPc8OCFQmCy4FgnRF/tWoYvoQbxfmKF9yGyEMPTMCYbXF3+9r/CDTXtEfOkYfEXkKIhV82k8JZzgu1JCaKEoVVVJZcIrUMQfRgOhKiwWuqFJawiy4ikUDaWtVYDWbq17K22riHFmtenvkV6ZGSsYPstaM9JJOySGdrr1YdJsItlRJlMOfU5DM3FIwaQlzPq6qzyAAzBlpxSI4na4L9PRTGv49D6D+DiAzZJlEU7OULgEYqPibwJO/rGucCDYpSW/TfTDjuZSLymsCEp0IcAEH/+RbBJe9qcZjpPbIQ+RY/xhSI1V+B5DDDWd4UiOU3qGKtH+AypScBpjUPzHJ1Oyw1VQuKRdJhD+nPVXF5jHrNLcigNN2+BSo2ZEhqsquVniE3+MHidJSu6q+gF7K+xNdSBR9IHLTZoZWytWYPARKqcIQYfAAJWLFuhqHqkoFVZxTvLEWSkVe8nj6mZ5VR8KsVARRlc9wlaG6wyeZaDOxDZce/qzWjdQ+BZ/oEGRxbCaxgU8loVgrMzjwxukAIuaX6hYdcwge+aaCLsNQxi7SnoAEePylVp9WevvHO4J6e+XsetwgmZCSEEtkdCRRFCl+ZJJPCPy4XPJLA2F5MAk8m5wZWg08LQnJ6qJkzkUYvicjKdlB7oZBUz53wvGTHYZqxFEpCVr5C5TQk6E3iaQZXmQQu0KZ/osbY+1i8KLG6tfYwDKXzz7HDZLHSBABj7m4nctplhX09ndOnnz2GfMvueDc895zRsFSI69sanFLIWdFkWMqSVCxcpYSBYaW2HGQy5s2wMLK5Zcu+vkP/6GjvUlXwq4/mp831YKa2Hpi6opD+kKLA6+EREPfreFI/bl2ceTf4/ZJdEOSk4jFuz2FpImh2c6SD13/sWvPeOW17hNmT+zuV/7zf/nrXW++5bmKXynFhq2iC0NzeLLc77ol1cqjjVwh98zTj25+9bnf7tg046S5993zmes+eMPBnu7AtolSge9phUZy3Jaulb3IKuR99J8ZOV+ZyWbGfwTmO26QjO+SnaTfmh3rOoqNiwOFfO71zf3XX3PVjNmzHl/+ozNOO3X3rh1XXX7lh669diAKlv7kp8uXP3nxxRddddG5pM86Tz71+RdevOveu957+qn/8erL7/3aN/72c5/N68qPHnjg/vu+7hrGkiVLYk1/6umV3/7eDyNxDs2vVCRtg30So0egymAeVqXjNldV14IodL1yEIZRFJLLVAwj8CqT25qvueKyv7zxz3fuKT3/7Opzzz7ri//txlVPPvbGhnVf/ftPzJzZWbCNa9//nmLPvpee//VNSy6ZPaOzvaXpioVnRZXBNc/9mmWJH3z321tf33jqjGnLlj74xLKH/+ama87smueXSjnDMgyzikQQSp8leGUs6rAQa8PREVSsVYHdo0fTtsXNGNxktUiLAn9iu3LDn374nLPOKNjmzBOmX3HZ4u697nce+MZ37vvnwYpyxWXvHywOkPb8+te/9uCDP/IVpfP4aZVSkcCKi2/ZtLkSKL/61eqtW7c+8i8/mTt7xgcWL8oryowpUw3u+x6Ev6Y0oRZDCKv2W+tbve9xaxI3jJM4iHzf81JqiqA009I3vvbW1Vddeekli7r37r7pxhuiwCWcJJGvxWpQVhoamgzbdmOlqa0t19hU9hXPDUyFXL4Se6Hkvk2l7HmN7RN+8sPvzpg66eEHH0QiNlZTKTXkC1HoM6Yw4cigZjrk2ZQ314M2XD5+n0ynS0SSkEhg6YoXKlHoWPZJJ039+E03tR038bRTZ676wcMrV6760FXv+7sv/g87P6mtTVm6dOn8+fNMTQmSSA2DBktxHEdXtYJKG1Z3d3eQKH9zyy2/XrWyvdnZtW3rH51xugNI7NQwPbds2zZLM9mRaU/gpZOEYSj1z3R15pn17466k405agSDDhOlzEin6I4S24oCxlZdL8ycPW/SjJO+/9MVDzz0yM79A6/s3HPygvNzjn3nV7618ZXNTS0TXTu/+uWNxdhpntL19LPrKpDxfPvjz63ZVax0F/Wu0+Zu27Z9+eoNp597ybY3u9dvObj2/+7a1d0fqUYUQYHBJTNQdK+qgaaGZI2F16cuOqqjtYuM7vCpqhd/rFZ4mO8qyNhOFI/RMUaDPgsOjQqjfaXiRP1BuVc3dc3OEfJj04yCkuKWiYaO3aAqsqBUiVkuTBSrUXEj1c4l5VJOj1XLqBhmgqaKvRbuTd5bFqoCzcp5gWq1tuAXTt7xfJQNAREOoileRvRBKIVjHfCGIZDjNte0UYZH8u+xik9BUBLNyeeFwTQXAlktwn0Y6xTLaUnsRib/cAe4rQYzYqUJTsNSUsFOSB6wlEYcE7KuKzlbN+y8ZYUEIs+V5WHNxFT8ILQKObdcwX9HYBFGlPLhsRGOqCmn4wbJsi4EgI5EdCXXEIMq9iPdjHQDkg1tZflIBrQIa5aLALLO0GrpgecatiVLLixXRwHvNm3TVo1KGcaHbliD0fsrQaLynEY9GLrKgndY9sNQS9egpL8yl6F9wZaKm0sZVd75OCJJjGwigtR5oo9CoQHWZkZ+k6OFXhli4AcRaklTNZAFK45YLzNV0yb8xiyqYYN+ydQTI/RgfvQ/6OkuFQfgqDIIaqpwYJDZFgtS5HzC0EelDMJi8wbCAd1IPDLngRuN7Fu983EEnqwJDeaBlGM/cMt+34E4dP2K6+RzIfFIplk6kKCYRE5h05yGFd0wVMvUhG5HkeuqUAhmWTnrsquuijy/r7ePpe0olLwH6/4wchW0oWfnc1E24TJQPTOyNMYIVjEVOlNznGxSNgbA390n48jDlDomTrjykvdNKFgM1lu27ly+8peKZyj5BhbMlNCH7EUh8dBSDDNvW+VySRRC701lwdnvaXIaVixb1jl75i2f+vAdd3x327ZtWhhZuuGHrHArsuQfkrALE78MHIt9KThExHqiLktU4oz4K9MxIhCAcVRZWX3nY9ya1Gk5CufNPeX22/4sDhJHCT/+0Wubmic+s/rZxoYm5g2YabPNumDMLgzJ9wzsm9DSxAyKEGVr4ec/8+kz585b8eRTve7gvzzy1I7Nr9uaamsaa8PsygiDUlIu51krVgKVWYvChKZSsPWcocF7JLGdslfJBsELSGFiMUldkOPTZDZ4ZNIytNgn0kRBJVa+8qXbN6xe/aW77r766mu+9e3vf+f7X7/vaw8s/8WyL9/+jwcHB79wzz333PtPx1d62iZO0gsNn7711kkdbYtOn+KVlJ9+7/5P3fmFO776pW/edddvt+34py999a233po198StO7du3bz38veff3Bf76233rp1128/fuONH7zyCubXjy5/4v7v/0CV2KwR2kOCM/rUZY6ZgXkHZY478IhERZuxoymzZ86ac/r8cxe899V167GuzjalzTaD3v1TJjRNbm8MvMHpx7fqfuXmmz7qqP5Hl1z/1PLl27YcfO2VLTf8yUfcSvG4Nqsh78D2j59S2LFpw2dv/suFp83uPG7CzX/xya4TWi9deMGJx0/92J9f/d37v3nPV/7nf73hg3NPPjmOApw9DkKTSScpIrHYwx/jHkJyeWfw4H6kiDd89nO3TGp0dm5/67bbbrMKLaGvaJEPWwtKg6XBPmxOM5XnfrP2jc1bt2/b0tBQgAj6kVEsB8WKa8QJ9NyNCEgFhvmVv1q1Y8cuZsdPLX9sx6ZNg4OKO1hcdMGFDbryJx/+CEHrtwfjtuYWDJRRlWkQo6m0LgmHwx/jBllxXae5lV0+NP+pW267cvHF/+HqK1UnHzE1tiTRmHdyEydO7PG9IIpKJbiCZjoOMdmtuAzuicagb1VK5WZVYw4ZJlpIDoyolCR2DmIEhbDtHKQC4mPt2LmL0Pn5v/3vW7dvLzS3DnqRpkEzEtM0iWtCdSxbGc4b1EU7bnOFOJJnMxn9MFnVufub/8tVlTvv+caBcmXtxgN/dfNffPnuu6dNbw5iBhFnQotmNreWY6Whpa1j0lRmaetf3XDhwln/eM9dDTkHSI6Tl5yRqjS1tJQrAb3xVKOM4+XUfFvHL9e8sPaN3ru++c9fuOPLX7z9TrvQFBCzGYFlOFaBqgRCKg57jDu6miZTZD8Igj17S6+/tmmw4q19ZdO+/uLGLVvXvvxyueS+/PLLD//86Te279q29+D23f2vv7qhu7e/u6fnNy+u375734YNbxzoLg267ouvbXxrf+mV9a8P9A70HOh78cX1FT85MKCseWXDgZ7egVK4Zu26nXu6Vz373ECRTTnGo48/tW3nLt3OC9HD84Mwhi3KlKhu4BmKrkdE0EdGV4Y7Q8i3n5QGGbwLhUJJsm+xkjNln2Kxz2FIJKqbjpfLsacG74Xi6mEUFov5SZODsqtgxLC+1qaoUmZ7pm7Z0b7upgkToOiYtJLTbNP0BvtVJpkNTezyU9h5RCy1LSuX9xMaD23H9LzAYCZAwj7yx4yumPPvARIji2IhNsKsNZ9coamrthmz/JaEeJXGDBMeauT6YbH5BriL4gfEfQwsDGN4fIsQvWSAXUPwYMuKyn5O1djrRuKPJ0KddiJTlsDgvTADxouEjZ4kB3kaSqWZJpkITDSE+chNyNAYMXYkyLqBh3fQB5gqAsH6A89jv5bMMYRSgc/0vQrTJeYWse+r5HroeGKWIKGGDeuBykFiSLoB2DBtFAlZU2KXUNFHB5mIxBBBM4Kda1olDM0GxyuXNVJ1WAGN00e+MYNIrJKAw3BIN+JKhRuJITsjU2jZbtfDeGXdwIN4xErTlvBA4iayhFtm7TFjJ/hwHpXLBE9ugZ9CInsUBFTj03crcFfQirwMg4SJxCvHIdJgcrRM8AU5GSPLcQLycabJS9n2JmYvLgCNDWmTCrJszKqu51npNkBEL1EHKYhPHv6oW4nX8Q7pTdqW6CFNKNMu/SALChIhzUwrGJTJwZDa8F3JwuZgaTJjwERxXeROsgvMwCNh65WZiDBHgfZFTiPGHCSVMhMOwyHDqkRuWZK6STx91qx8oQBO5jx0AJzI07AN30eTzGAMpgfIAJs6PESxiDoHugEMJpKhRRttHR1dXV2UJ0HAHyJgWylJ9LC398Q5cxoaYOfiHlhdWMJs5bAc3Ex6id1JOWsB5C/JOEPWNc0tFhGciisCBa2q6rzTTw+KRd22p06d2tjYKJJNWVumyTAdMPCOwHVRosQ/kmlHcNQfQlKfBBtH1s606dOnTJmybcvmXEMD+KdMncqbyv39HZ3TTj+jC03uO7CfBMzkqVOa21srbhlviiql1ta2hkIBJog4ECnnzDMmdLSTodRtc/LUyVhlnu2pqjJ//mkzZnT2Foue5/b39x3cuweVOoXcxEkdnu/SGvtac/mcnXPaOtqZS3puhVk4hox0xkSalfNZN/BgjZnSQKIjszBktNizZw+yv+KKKzzPI4PG88uWLZszZ85xxx2HLPbv38/JpEmTmpqa1q9f/8brr3edffbck+egJ3q2evXq7m7/0ksXu77X09Pjuu7FF1+Ma9FI9959L7300rx583hjZ2cnQWXBggWP/OIXp5xyyllnnUVNvOOJJ1bkcrmLLrqoUqk0NjcVi8Xljz5KzXS2NSbG4cK65lpVIAajaRJj45jeDwwM5Jqa6Bkj/s9+9jPsJgi9zenxyEM/bmjIn3jirJdeepGpxPTpUzsmdZxyykmPPLps6U8fYlN4b8+BfB7OZq5a+fSzv1y1cOEF27dvfej+b2EaFe7u27Nz5/Znnnn6hScemzpt8sGe/XbO6uo6DWz/56Ef4/yTJ08mHJDIRFgrV66UwENpGpCG0dQ5qwuS+kKCEZSuS4xhY2w+/+abb/KygwcP7t60CZ8RU3ZdtIdmFNueMWMGSjvnnHOmT5++d+/eWbNmbty4YWDPHtwV8XNr2rRpW7ZsKe7bN72zE6W99MILCi4dhvI4Q30uJyetrc3Nzbt37z7hhBO2b9/evWMHPejv70d1tI88B3fv5tW9vb1ZUKyDa1RxXZAiJGJaOjDExSLYMFH0OWHCBEASD1AsL6YCIDFUpgbEgrVr1y5bunTFihUb1q3Dlujo7K6uyy+/HGmUi8WWlpZB5hcmi1UWsqMjrRMmzJ07d+/e7paWNh4vF0sEJNRVKpXQG2IFPLGgo6MD/FVsponUsCnBkXpj1ehG4Rp1URck2mNwoy5RUcnn6V+ZkyDgBLmSzsDx+vr6oNh8Ll68+MSuLhAuXLjwuiVLFi1ahFWvW/ey63rgRCjySJLwrIjDNFEUGK7/4yW45cAAwAdRLF2/5rrrECIgURT+397efu3115933nlr1qzBdXkjTelNTa2trVgKEqeRUWjqXKj1kstglIUAxMs4HkXInqM4MNDc0oSYw3J5wpQpdIUB0LAsIv6+ffvcwcGGVqYTLfSPcnkjQ3wQLfzAB4qlQUILdijPwn4gABZ54/YDB7tZOXIrFUCCgZeiseaWFmwEctPY3k60Exn092PNKBZBY95t7e2U8TpGuCxhhwjeBnAkrasLUsyVR2sPM6LLkCVZQ+miuGvq9BAx4Qycp5qXcAcBzNskmi648Lz+vmJrUyPTy5/9/F99DAHTgMSQ2oPfMjW0bU+s14ZLSJDEfiNFtw1YFFYqpijBkwE/RiQ0H5TLDKryasqzCgJFzH6on0NQR4KsP05CnWxbOs14nbKzbFAR6pomD1nKsvMFaBzMTXKtzDIp559lC8PUSECH06d38tZ/e+75wcGSblrC8Sw77C8a+QZIaeSTnjN01gjCUHccy7AogX+rlEClmBDLXq2EHx1Frs+0KldogHQxoMESeREVaCRzy0NBDiEXRdUzVyph8VgdgyS2lGB4/BQq5ejEDQCIqrFJJJrWhP1AYkUoNbmSYk21HeOEdIXWAG80NElMTplG4JOwAZRJa2IOKIWkLr9LITfLu+CPMmHUYM7iO6n9S6RApWywSONFZm5Db+Rk6BipybpkoFobGk2WnlEEpsJ5iiHAV5knMUtKZ0sR81es07ToNCaNIJC3PI6O8qx5MF1QSRNDx0AYelimjEvselAtR4pdeK/kW3lWniPxbrNGQuYWI5J2gE6D1MGNJQrK2pYhVZGyQK0SMmm2zlE3OvF6DuDx7vSUJD8TIJlPIH4kTNcFJz6WSp32s2iM7LFw/I06qAi5oApaMByHK+Dhi9IZfvCWejUlWd9I6vCuzPwoEaVhujINkKBCs4xhMpmk/XTjiTR1hNFVuehGmpD5xNAhay3pAplIKZNCGrvSZRbyvUMVj4UTpDLcjZEo0lIKkFFdTQ4/OXSWgh+6OtZPMAr+0FNCyiSVBMkgrqtbNVONjdCs1MyqMWM61rBliz/VXmULROkF2NJ+i1sduSZHoz7WsNbpT+bPteiaLvSxUWqocs28M9VJebbv9MhWBIeaeddPWOgd8x2EYMrFAsejyTGbOvqFEloONbIsRtZ6V9Nkdj1CTZANymrPp9KqhrFhbdcaOZrf1fh/CE6G7poKxT5TMEezn+/Su9NsYxpd2XIA7RT2IL9Whm3wiQSEAxC3uEAKQ6pDn2M7wLvUzSNplpUiiIKMDtBGQioZnTQzJuOHbP4hYZsYPtsO+Jk2/svKLllgOCTnpPdrRORtb8ri1dsKj+Il2U3oFBSfXDjdII1IyjBlVyGqFEo8OEg2NWCriVA35nke24YcNmKw/DdWv0Wl2fgz1t2jU8aCLGye9C9Kg+/JBoo0P4xtGqwuQDbbmrRJkzpCz0MSjux6RMdRWCLDOzogHZ3+H9FbZYbJtAF6TNqSZE1KqrFKjV00LAf3Hfzwf7pW+/Rf38w+aNa0ZUej/DKDXVR59rNmNp0aNqdonmVJ2QWOuR5TRxom2B7NCgSMPwoDl5S9bepsdyr3Hrz08ss+cv1l6i+95LHHnr/73nvCGIpvM6cJvIBc/+gIk0XorGwoDh2RpN/1Ssy5MFR2rDPRU9nSx+/iZJ4WVAbPWfDeWz7z6fZWXX28Lyk0Ks/92+bb/+HO/t4+u7GFJad0s96hYATqseaTmBUYiShElRzKZDtUsQ/Mixdd+MlP/FVLs8peMPXJATFpUg2kt7/3v3+08pnV/mBZsQuMLQwmo/UgIMW9j6UDoXPghKwRyn4Qz+08afZ1V195zVXnR76kZvkBvvpsr8wP5TcCLCvllHUbtj75zJrfrH11T3dPSMojYi8nfsqiqJbIrvqMCB0rKOmPrIXx30U4DS3tLdOPP+59F561+Pz3TGrLBaVYi7Uo3bf1/wCARyud9uxDLAAAAABJRU5ErkJggg==;" vertex="1" parent="1">
          <mxGeometry x="720" y="380" width="76" height="81" as="geometry" />
        </mxCell>
        <mxCell id="kM9Xeybq4EzYfr0AlQyo-5" value="LOAD BALANCER" style="outlineConnect=0;dashed=0;verticalLabelPosition=bottom;verticalAlign=top;align=center;html=1;shape=mxgraph.aws3.classic_load_balancer;fillColor=#F58534;gradientColor=none;" vertex="1" parent="1">
          <mxGeometry x="470" y="409.5" width="69" height="72" as="geometry" />
        </mxCell>
        <mxCell id="kM9Xeybq4EzYfr0AlQyo-15" value="" style="shape=image;verticalLabelPosition=bottom;labelBackgroundColor=#ffffff;verticalAlign=top;aspect=fixed;imageAspect=0;image=data:image/png,iVBORw0KGgoAAAANSUhEUgAAAEwAAABRCAIAAAD3vdc5AAAYcGlDQ1BJQ0MgUHJvZmlsZQAAWIWVWQc8le3fv+6zz7HPsffeZO+9994kHOtYccxQIskqUSFKJZmVSqESkYZSRg9JEsmoFCoqI+9t1PO8z//9vO/nvT6f676+53f9rt+61v07NwBcnb6RkWEIRgDCI2KoDqYG/G7uHvzYSQABbsAMFADClxwdqW9nZwXg8rv972VpEOaGy3OZDVn/2f+/FqJ/QDQZAMgLxn7+0eRwGN8FAJVGjqTGAIAxgulC8TGRGzgYxsxU2EAYJ2/goC18dAP7beGKTR4nB0MYNwOAo/X1pQYBQN8J0/njyEGwHPp3cB8xwp8SAbP+gLEOOdjXHwAuNZhHOjx89waGKxCH+SNhnAtjNb9/yAz6b/L9/sj39Q36g7f82iw4I0p0ZJjvnv9naP7vEh4W+1uHKFxpg6lmDhv+wzEcCt1tuYFpYTwb4WdjuxFrGP+g+G/FHQAEITjWzHmLH8FNjjaE4wdYYSzn72tkCWNuGJtEhNlYbdP9Aikm5jCGVwsigRJj7rQ9NjMg2thxW+Yp6m4H2984kGqovz32si91U+8Gf2dsqLP+tvyh4ADz3/K/JQY7ucKYAACSEEdxsYExPYyZo0MdLbd4kIKJwYY2v3mosQ4b9gvDWC0gwtRgSz7SK5Bq4rDNHxke/dtfZEYwxdxmGxfHBDuZbcUHWUv23bSfHcaNARH6zr/lBES7Wf32xT/AyHjLd+SzgAjnbX+Ro5ExBg7bY+cjw+y2+VG4gDDTDbogjDmj4xy3x6K0YuDFuSUfZRUZY+e0ZSfKJ8TXwm7LHlQcsAKGwAjwg1i4+oHdIARQns02zcK/tnpMgC+ggiAQAGS2Kb9HuG72RMBPR5AIPsEoAET/GWew2RsA4mD62h/q1lMGBG72xm2OCAVTMA4HliAM/h27OSrijzYX8A6mUP5DOxm2NQyuG33/SdOHKVbblNjfcvkZfnNijDFGGDOMCUYCxYnSQWmirOCnHlwVUGoo9d/W/s2PnkL3od+iB9Bj6Je7KGnUf9liDcZg+SbbHvv902OUKCxTGWWA0oalw5JRrChOIINSgvXoo3Rhzcow1XDb7g3f+f8HP/948I+Yb/Ph5fAIPBteDy/+75H0kvTKf6RsRPSf8dmy1e9PVA3/9Pxbv+E/4uwPt5b/5kRmIhuQD5HtyC5kC7IJ8CPbkM3IbuSdDfxnDb3bXEO/tTls2hMKy6H8hz7fbZ0bkYyWq5N7L7e63QdiAhJiNjaY4e7IPVRKUHAMvz58CwTwm0eQZaX5FeQU5AHYuFO2jqmvDpt3BcTa8zeNfBAA1XkA8Mt/08K/AnAF3uP81n/TRLzhbYYBoHqKHEuN26KhNh5o+DRggHcUB+AFQkAc9kgBqABNoAeMgQWwBU7AHXjDcQ6G1zMVxINkkAoyQA44Ck6AEnAGnAfV4BK4BppAC2gHD8AT0AsGwCt4/UyCj2AeLIEVCIKwEB1EgjggPkgEkoIUIDVIBzKGrCAHyB3ygYKgCCgWSoYOQDlQAVQCnYNqoKvQTagd6oL6oJfQOPQe+gItI5AIWgQzggchitiBUEPoIywRToidiCBEFCIRkY44gihGlCMuIhoR7YgniAHEGOIjYhEJkDRIVqQAUgaphjRE2iI9kIFIKnIfMhtZiCxHXkbegmf6OXIMOYv8icKgSCh+lAy8hs1QzigyKgq1D5WLKkFVoxpRnajnqHHUPOoXmg7NjZZCa6DN0W7oIHQ8OgNdiK5E30Dfh3fTJHoJg8GwYsQwqvBudMeEYJIwuZjTmHrMXUwfZgKziMViObBSWG2sLdYXG4PNwJ7EXsS2Yfuxk9gfOBocH04BZ4LzwEXg0nCFuFpcK64fN41bwTPiRfAaeFu8P34PPg9fgb+F78FP4lcITAQxgjbBiRBCSCUUEy4T7hNGCF9paGgEadRp7GkoNPtpimmu0DyiGaf5SUuklaQ1pPWijaU9QltFe5f2Je1XOjo6UTo9Og+6GLojdDV09+hG6X7Qk+hl6c3p/elT6EvpG+n76T8z4BlEGPQZvBkSGQoZGhh6GGYZ8YyijIaMvoz7GEsZbzK+YFxkIjHJM9kyhTPlMtUydTHNELFEUaIx0Z+YTjxPvEecICFJQiRDEpl0gFRBuk+aZMYwizGbM4cw5zBfYn7GPM9CZFFicWFJYCllucMyxopkFWU1Zw1jzWO9xjrIuszGw6bPFsCWxXaZrZ/tOzsXux57AHs2ez37APsyBz+HMUcoRz5HE8drThSnJKc9ZzxnGed9zlkuZi5NLjJXNtc1rmFuBLcktwN3Evd57m7uRR5eHlOeSJ6TPPd4ZnlZefV4Q3iP87byvucj8enwUfiO87XxfeBn4dfnD+Mv5u/knxfgFjATiBU4J/BMYEVQTNBZME2wXvC1EEFITShQ6LhQh9C8MJ+wtXCycJ3wsAheRE0kWKRI5KHId1ExUVfRQ6JNojNi7GLmYolidWIj4nTiuuJR4uXif0lgJNQkQiVOS/RKIiSVJYMlSyV7pBBSKlIUqdNSfdJoaXXpCOly6RcytDL6MnEydTLjsqyyVrJpsk2yn3cI7/DYkb/j4Y5fcspyYXIVcq/kifIW8mnyt+S/KEgqkBVKFf5SpFM0UUxRbFZcUJJSClAqUxpSJilbKx9S7lBeU1FVoapcVnmvKqzqo3pK9YUas5qdWq7aI3W0uoF6inqL+k8NFY0YjWsac5oymqGatZozWmJaAVoVWhPagtq+2ue0x3T4dXx0zuqM6Qro+uqW677VE9Lz16vUm9aX0A/Rv6j/2UDOgGpww+C7oYbhXsO7RkgjU6Nso2fGRGNn4xLjURNBkyCTOpN5U2XTJNO7ZmgzS7N8sxfmPOZk8xrzeQtVi70WnZa0lo6WJZZvrSStqFa3rBHWFtbHrEdsRGwibJpsga257THb13ZidlF2t+0x9nb2pfZTDvIOyQ4PHUmOuxxrHZecDJzynF45izvHOne4MLh4udS4fHc1ci1wHXPb4bbX7Yk7pzvFvdkD6+HiUemx6GnsecJz0kvZK8NrcKfYzoSdXd6c3mHed3Yx7PLd1eCD9nH1qfVZ9bX1Lfdd9DP3O+U3TzYkF5E/+uv5H/d/H6AdUBAwHagdWBA4E6QddCzofbBucGHwLMWQUkJZCDELORPyPdQ2tCp0Pcw1rD4cF+4TfjOCGBEa0bmbd3fC7r5IqciMyLEojagTUfNUS2plNBS9M7o5hhl+ee+OFY89GDsepxNXGvcj3iW+IYEpISKhe4/knqw904kmiReSUEnkpI5kgeTU5PG9+nvP7YP2+e3rSBFKSU+Z3G+6vzqVkBqa+jRNLq0g7dsB1wO30nnS96dPHDQ9WJdBn0HNeHFI89CZTFQmJfNZlmLWyaxf2f7Zj3PkcgpzVnPJuY8Pyx8uPrx+JPDIszyVvLKjmKMRRwfzdfOrC5gKEgsmjlkfazzOfzz7+LcTu050FSoVnikiFMUWjRVbFTefFD559ORqSXDJQKlBaf0p7lNZp76f9j/dX6ZXdvkMz5mcM8tnKWeHzpmeaywXLS88jzkfd36qwqXi4QW1CzWVnJU5lWtVEVVj1Q7VnTWqNTW13LV5dYi62Lr3F70u9l4yutR8WebyuXrW+pwr4ErslQ9Xfa4OXrO81tGg1nD5usj1UzdIN7IbocY9jfNNwU1jze7NfTctbnbc0rx147bs7aoWgZbSOyx38loJremt622JbYt3I+/Otge1T3Ts6nh1z+3eX532nc/uW95/9MDkwb2H+g/bHmk/aunS6Lr5WO1x0xOVJ43dyt03nio/vfFM5Vljj2pPc696760+rb7Wft3+9udGzx/8Zf7XkwGbgb5B58GhF14vxob8h2Zehr1cGI4bXnm1fwQ9kv2a8XXhKPdo+RuJN/VjKmN3xo3Gu986vn01QZ74+C763epk+hTdVOE033TNjMJMy3uT970fPD9Mfoz8uDKb8Ynp06nP4p+vz+nNdc+7zU8uUBfWv+R+5fha9U3pW8ei3eLoUvjSyvfsHxw/qn+q/Xy47Lo8vRK/il0tXpNYu/XL8tfIevj6eqQv1XfzVQAJV0RgIABfqgCgcweA1AunCZ5bOd92QcIvHwi4dYFkoY+IdPhG7UFloE0wSMwTbDEuAm9FkKDB0szS9tM10VcxVDLWMzUTO0hPmHtZhljfsM2wf+RY4FzmWuNB8GL5CPx0AkRBohCrMLsImyi7GLc4jwS/JL+UoLSwjKis2A5pOTl5RQUVRQ0lXWVjFXNVczUTdRMNE01DLX1tLR0NXSU9WX1RAx5DZiOC0brxV5Mp05dm3eYtFtWWx6xSrENs3GyN7ZTtxRy4HBmdcM5IF8gV4YZyx3swenJ4Ce+U8ZbYJezD58vpx0Im+RMDSIGsQVzBghTpENVQkzCXcEpE8u6CyIqos9Ti6PyY3NisuOz4IwnFe6oTW5Ne7QX7pFN27T+Z+uqAYPrug+2HMJlCWQrZBjmOuYGHE4/k51UfvZs/XLB4nOmETKFFUWDxgZNlJTdL+0+9O714BnuW45xkudZ52wq/CzGVB6sKq6trbtY+rhu++OHSz3rcFbar4td0G9yvR93IajzdVN/cdrPrVs/t3pYndzpar7aV3k1p39WhcY94b6rz5v3aB6ce5jxK6PJ7bP5Etpu+e/bp/WeneiJ7DfpIfRP9156n/mU/IDKIGnz/onuo/mXBcMwrlxG115yvV0dH37SPXRjPert7wvmd1qQwvMqWpv+auf6+6EPKx7BZ8ify58i5nPkbC3Nf9b6dWyJ9L/4ptfxsNeWXxvr6P+ZfATmDKkBbYlgwr7ENuFx8EMGIRpKWgXaVbpp+iGGI8Q3TO+In0lfmJZY11hW2NfZfHGucS1xfued4pnhH+Pr57wvcFKwUyhEOE7ESlRTDi30Q75KokcyWokhbysjI0snO7eiTuy5fpJCsSFayVzZQUVAVUCOqrat/1hjR7NJq1C7XydWN1/PRtzBQMOQ0Qhi9N35mcsU03yza3MlCxZLNcsXqjfU9m1rbfLsk+0AHR0d9J3lnAReSK9Z12e2j+4hHt+cdr/qdZ72P7Trkk+xL9aOQff09ApwC7YNsgi0pliFmoZphsuECESy7aSIRkatRP6g/o9di0XHEeKEEjT1OidFJhckte6dSaPbzpcqkaR+wSfc7GJ9x+FBlZlvWcPb3XObDCkfs8yKOHs6vK3h07N3x9ULOIuViu5OhJQdLz5xqPt1bNnPm1znmconz2hV2F8iVsVWHqovhc667bu4S8bJiveOVqKt51+oaOq+P3PjShGnmuCl5S+O2RYvbncDWmLaUu6ntBzoO3svoPHQ/80H2w9xHh7sOPz785HB37tOcZ1k9h3rT+1L79z6P+ytqYPdg5IuYoaSXB4ePvSofaXj9YPTlm0/j4C1xQvCd/KTOlPm038zZ958+Ks8mfWr9/GtecyHuy+Wv7xbZlyy/p/xo+Dm9wr3qsJb9q3N7/o0R+sgdyM+odvQhjCNWHLuAu4nPIDjQcNOM0p6nC6dXZ0AwtDOmM1kQGYi9pKPMtiwMLE9Zs9lM2CH2Zo4ITiHOIa4cbh3uTzylvGa83/jK+M34PwscF9QQHBHaK8wv3CriLbIqWiymJNYtHiC+KnFMUkqyTcpRako6VUZEZkg2d4fBjm9yVfKeCnQKbYqRSgJK/cppKgoq46p5atpqn9RLNcw1FjXPa9lr/dKu03HXxere0CPrE/XvGkQa8hv2GqUZKxlPm5SY2sLvHbfNoyykLN5Zlll5WLNaP7cpsHWwI9kN2p908HYUdvzgdNU50cXYlcF12K3SPdrDwJPWc9DrzM5gbwXvlV33ffJ9vfwk/JbInf7HAnwDFYNQQYPBtZSUEKdQ6TB02JvwWxHFu+MjXaM0qLzRqOjZmIHY9rj6+LKEvD2pifFJocn+e3fuc0tx2u+Qap9mf8Ah3emge8bOQwGZoVnR2Sk5mbkFh8uO1OQ1Hr2X31cweuzzCVShRJFX8dGT90tWTsme9is7cebx2dVyhfMBFSUXeqpQ1Vo18bX1dR8vSV4Oqa+9MndNpWH/9e5Gjqaw5s5bfLdTWt62WrW1tMt3XOyUun/1ocGj4ccJ3XxPe3sO9zk9Fx0Agx+H3g1/eA3eiIzvmqidQs8kfgSfKubJX3WX1H46rxZvzP/Wf38bBaMCwIlDAGz8n+NQA0DuRQDE9gDABueednQAOKkDhIApgBY7AGSh/ef+gODEkwBIgAdIAjVgBueXYXBOWQTqQReYAGsQO6QMOULR0AmoGXoN53zSCBdEKqIeMYpkQBog45GXkFNwluaFKkW9gjMxH/QF9CeMCiYV8wzLgw3HtuFIOAquHc+Jj8X3ExQJRYRVGjLNU1p12mo6drpcegR9Ev13hliGJcZEJogpm8hKrCCpkXqZQ1iwLBdYjVmn2DLZpdh7OWI4OThbufy5abiv8XjwInkv8XnCGUGfQJ6grRCT0HPhIhFPUQHRKbGL4tESGpKQZJdUvrQnvDrnZft3tMhVyhco7FOkKDkqa6jwqUKqY2ot6sc1QjS1tei1RrRrdGJ0dfVwen36DQbXDZuMbhm3mtwz7TLrMR+0GLWctlqwXrHF2bHaizqoOVo5kZ2TXYpdW91mPEie+l6RO8u9B3wIvvp+SeRm/++BakFJwe0hhFDnsIrwxd1mkWVRc9FaMTmxo/FKCUf3LCS5Jj/Yp53SmmqZNpGelaGdCbL6cq4cPpVXkG92DHn8fmF+cUCJ4SnpMsGzIuVKFTaVUdWltU8ugXrVqzYN7jeCm5Jvnrh97U5/21IHb6fZg5hHZx8/617rkenb+fzIwN0h0jB55NLo7Dj3hNqk3rT8e/oPL2aPfN4x175g9qXzm8JiydLyD/ufF5YXVjXWUn7d3Tw/tuafCM+/BFAFJsAVhIB94DioA51gFPyASJAcZANFQEehBuglAiAk4Cw/DXEV8RbO462Q6cg25ApKG3UA1Y1mRweiGzF4jDemEcuIDcM+wUnj8nCLeC/8A4IsoYgGSRNFM07rTPuYzpCulV6L/g6cxT5itGcchfPUdeJxkizpKXMEnHk2s/qy0bA1swdysHI85NzDJc01zl3EY8uL4+3g289vIIAReCpYKOQrLCu8KtItWiYWJW4swSXxRfKx1HnpFBlPWc0dEnLs8nj5VYU5xQmlF8qPVW6rXlQrUT+kQdX01DLUltRh1FnUHdZr1a83uGrYYNRkfNukzbTT7LF5r8ULyzdW09YLNit2OHtWBzFHdSdrZ3+Xva4lbjfdhz3WvAR3WnjH7Drr0+MHkVX8IwJqAqeCRSkhIVdDl8NNIwp3z0RpUfdGt8Wi4qziixKmEtWTjiRP7zNOqU6lT9tzYBo+T3ozLbIe5pjldh9xyBvLTznGe/xuYWAx/cnmUv/TpLIHZ/eWq5z/cuFqVWyNVh3m4sDlC1eSr3ldV2mkb5q4ef32gTs2bex3xztqOqkPtB5huwaf1Dzd3+PVp/NcZIBp8NGQ88vJV4mvmUevjTmNr05UT7pPM8x0fcictfzMOPdi4ezXkEWV74gfPculq0G/FLfnHwkwgHbzBBAHKvAKcAPh4CA4A26DYXj/C0IWUCxUAQ0iaBBG8M7vQOKQ9sgzyC8oC1QVGo+mot9gnODdboMdwJFxP/GFBHXCJM1JWj3aEboken76LoZ4RknGCaYzRD+SBOk780OWMtYkNk92PQ4pTnYuGm4E9yrPMu8qPxDAwm+gPMKyItqiDmJB4vslTkregPPueVnGHQpyrvL7FCoUe5RWVCRU3dUK1Ps1mbXctSt05vS09Q8bvDFSNM4xGTfTMi+0+GJlZ33JltYuzP6xo6RTjvMHVwu3Wg+8J8XrobforoM+k36G5MoAZKB/0D2KaEhG6Ey4VUR9JEtUAnUsxij2cjx7wr49H5Pc4H2qklKVypF2JB11MDnjS6ZH1tXs9Vynw1VHlo865l8+RjhOOfGgSKo49+RcqeupO2WiZ/Lhs9//fPcFzcqqaqaaxNqpi46XWupFr+RdXWrwvv6gUabpaPP8Lfvbl+8QWgPbWtuJHQH3Gu+jHtg9LH008VjiCaW78ul4D2evfd/B/uvP3w4QBuVeOAxRXx4Zrnl1b2Tg9dTowpvVcegtdgLzDjMJJpenPk2Pzjx93/yh/GPmbMQn689Sc9i5N/PNC1lfPL5KfP3yrWUxbcnoO+Z754+Un5o/F5YvrHisElYb18i/6H5dW3ffmP/oQEWFzesDojUAAD26vv5VFABsAQBr+evrK+Xr62vn4WRjBIC7YVvfkzbvGkYAznJtoL4r7wX+/S1n61vTP/KYf7dg8yba1ArfRJstfCuB/wIDd97KNrRe7AAAAKJlWElmTU0AKgAAAAgABgEGAAMAAAABAAIAAAESAAMAAAABAAEAAAEaAAUAAAABAAAAVgEbAAUAAAABAAAAXgEoAAMAAAABAAIAAIdpAAQAAAABAAAAZgAAAAAAAABIAAAAAQAAAEgAAAABAAOShgAHAAAAEgAAAJCgAgAEAAAAAQAAAEygAwAEAAAAAQAAAFEAAAAAQVNDSUkAAABTY3JlZW5zaG90ZbpqEAAAAAlwSFlzAAALEwAACxMBAJqcGAAAA09pVFh0WE1MOmNvbS5hZG9iZS54bXAAAAAAADx4OnhtcG1ldGEgeG1sbnM6eD0iYWRvYmU6bnM6bWV0YS8iIHg6eG1wdGs9IlhNUCBDb3JlIDUuNC4wIj4KICAgPHJkZjpSREYgeG1sbnM6cmRmPSJodHRwOi8vd3d3LnczLm9yZy8xOTk5LzAyLzIyLXJkZi1zeW50YXgtbnMjIj4KICAgICAgPHJkZjpEZXNjcmlwdGlvbiByZGY6YWJvdXQ9IiIKICAgICAgICAgICAgeG1sbnM6dGlmZj0iaHR0cDovL25zLmFkb2JlLmNvbS90aWZmLzEuMC8iCiAgICAgICAgICAgIHhtbG5zOmV4aWY9Imh0dHA6Ly9ucy5hZG9iZS5jb20vZXhpZi8xLjAvIj4KICAgICAgICAgPHRpZmY6UmVzb2x1dGlvblVuaXQ+MjwvdGlmZjpSZXNvbHV0aW9uVW5pdD4KICAgICAgICAgPHRpZmY6WVJlc29sdXRpb24+NzI8L3RpZmY6WVJlc29sdXRpb24+CiAgICAgICAgIDx0aWZmOlhSZXNvbHV0aW9uPjcyPC90aWZmOlhSZXNvbHV0aW9uPgogICAgICAgICA8dGlmZjpPcmllbnRhdGlvbj4xPC90aWZmOk9yaWVudGF0aW9uPgogICAgICAgICA8dGlmZjpDb21wcmVzc2lvbj4xPC90aWZmOkNvbXByZXNzaW9uPgogICAgICAgICA8dGlmZjpQaG90b21ldHJpY0ludGVycHJldGF0aW9uPjI8L3RpZmY6UGhvdG9tZXRyaWNJbnRlcnByZXRhdGlvbj4KICAgICAgICAgPGV4aWY6UGl4ZWxZRGltZW5zaW9uPjgxPC9leGlmOlBpeGVsWURpbWVuc2lvbj4KICAgICAgICAgPGV4aWY6VXNlckNvbW1lbnQ+U2NyZWVuc2hvdDwvZXhpZjpVc2VyQ29tbWVudD4KICAgICAgICAgPGV4aWY6UGl4ZWxYRGltZW5zaW9uPjc2PC9leGlmOlBpeGVsWERpbWVuc2lvbj4KICAgICAgPC9yZGY6RGVzY3JpcHRpb24+CiAgIDwvcmRmOlJERj4KPC94OnhtcG1ldGE+CgRTWNoAABvySURBVHgB3ZwJvBXVnedrr7r3vv3xQDYfAi4I8rQ1RtwIihqNUUdnTDp8enFi7HRPJnZnMZrp+UzSbWuS6bh0FjuayTqJhkybDlHEDQmJrUERUdCRHcQAD3jbfffe2mu+/6p73yLvCi+JDZ+pz+PeqlOnTp3ffzu/8z/noq7qT6JQMWzFNJStu/p+vmz50ytX9fYPKkmsKFr6p1SPJP3W9Nr16G9VHX39h75Kstcf0myUlhuaEkWKocw7dc7V11z5vvPn5xylPKCYqvypT/Umtq0EofLww4/9+KGlPb19ulMwTAt4sYAcdWiJEiljg0nqdWJUA3/4C1XRdF33vApflqW5fT2abcyfe+onP/HxrlM7BvoVNU7UZ4qJ7yt333vfiuWPmfkG08klilpxfd2wkkNAgi8+SmDqiUfT9CiKDEPXNC0IK4auGqrqVkqFnPn5z91y3oLTdPA8NZh88Qv3/urZXxcKjbGieoGfqAC0A3+0zmrGotYxy3rl9Tr3ByvXtDiMEL6CiamxpvEVx0Fg6ImaRHfc/vcLzjlJ72s+5ckVj2uOAzav5NpNzaEbKLqpalrCE7U/5KRqKoUoEzzHziGRQ9eSJFZ13XSsKPASzzfzORQWhuGLL60788zzVeXcJWY+n+qa+jyhxXgwNqkZqbDTwqrYRZsiqbGOo+WTookk0Uw9jmPFqyiWZRmm75boqGmYYeDPOelkkGh4ZuCHAsAw0KdumTyAbARLkkJSBZ5aPR8bJLYi9f/dD7FR+hoBVo/tHIB9rFfVFd0IKVX1117daBj5gsgAO1RVvpUkjPA60SShdViNKUxBIJXHOnh8rOJ3vaz63qxbMc4pxoi7KWGU6IauK5EWCVzKs6oqUKSr2acglmc4sPjshE/17ePK0J2jcxLHWYfE9FAgR9prGRqiBMdTTCdzvDG7V0MIrur9TIfHGMha31FQ5k/VgtSyCJVcAnIYTHa7apnq2GZZa/NY+c4UkGFQq2N4ao1JpgxsVH0HTR4K4xjV4aEdTUswVRiaHGOArAXUYUijzCB97Nj5SDKLq+ot6xfQUgULRlHuGCDfEQAPZ9J5x1r/jjczQKhhKP6nL0/gLUO9MDLMNe0NlQ85cWrfw8UwnjRMD5cc5TPpuYScQ4Nipoz/X3wy09DblJkwnteGbqPKVOraoNxIDZxv0WHWItMwXcYl5BeH8CqZrxhQorRcRihuBFBKVdEjeTqGXdKMmBC1YzH5RG4iZ74TJZB3pDNVLa7IW6RBDvnMRu30svZRNU3RnjrKG2sV5IY8S/t8jtcnh1uBH9DMCJYgPc8OCFQmCy4FgnRF/tWoYvoQbxfmKF9yGyEMPTMCYbXF3+9r/CDTXtEfOkYfEXkKIhV82k8JZzgu1JCaKEoVVVJZcIrUMQfRgOhKiwWuqFJawiy4ikUDaWtVYDWbq17K22riHFmtenvkV6ZGSsYPstaM9JJOySGdrr1YdJsItlRJlMOfU5DM3FIwaQlzPq6qzyAAzBlpxSI4na4L9PRTGv49D6D+DiAzZJlEU7OULgEYqPibwJO/rGucCDYpSW/TfTDjuZSLymsCEp0IcAEH/+RbBJe9qcZjpPbIQ+RY/xhSI1V+B5DDDWd4UiOU3qGKtH+AypScBpjUPzHJ1Oyw1VQuKRdJhD+nPVXF5jHrNLcigNN2+BSo2ZEhqsquVniE3+MHidJSu6q+gF7K+xNdSBR9IHLTZoZWytWYPARKqcIQYfAAJWLFuhqHqkoFVZxTvLEWSkVe8nj6mZ5VR8KsVARRlc9wlaG6wyeZaDOxDZce/qzWjdQ+BZ/oEGRxbCaxgU8loVgrMzjwxukAIuaX6hYdcwge+aaCLsNQxi7SnoAEePylVp9WevvHO4J6e+XsetwgmZCSEEtkdCRRFCl+ZJJPCPy4XPJLA2F5MAk8m5wZWg08LQnJ6qJkzkUYvicjKdlB7oZBUz53wvGTHYZqxFEpCVr5C5TQk6E3iaQZXmQQu0KZ/osbY+1i8KLG6tfYwDKXzz7HDZLHSBABj7m4nctplhX09ndOnnz2GfMvueDc895zRsFSI69sanFLIWdFkWMqSVCxcpYSBYaW2HGQy5s2wMLK5Zcu+vkP/6GjvUlXwq4/mp831YKa2Hpi6opD+kKLA6+EREPfreFI/bl2ceTf4/ZJdEOSk4jFuz2FpImh2c6SD13/sWvPeOW17hNmT+zuV/7zf/nrXW++5bmKXynFhq2iC0NzeLLc77ol1cqjjVwh98zTj25+9bnf7tg046S5993zmes+eMPBnu7AtolSge9phUZy3Jaulb3IKuR99J8ZOV+ZyWbGfwTmO26QjO+SnaTfmh3rOoqNiwOFfO71zf3XX3PVjNmzHl/+ozNOO3X3rh1XXX7lh669diAKlv7kp8uXP3nxxRddddG5pM86Tz71+RdevOveu957+qn/8erL7/3aN/72c5/N68qPHnjg/vu+7hrGkiVLYk1/6umV3/7eDyNxDs2vVCRtg30So0egymAeVqXjNldV14IodL1yEIZRFJLLVAwj8CqT25qvueKyv7zxz3fuKT3/7Opzzz7ri//txlVPPvbGhnVf/ftPzJzZWbCNa9//nmLPvpee//VNSy6ZPaOzvaXpioVnRZXBNc/9mmWJH3z321tf33jqjGnLlj74xLKH/+ama87smueXSjnDMgyzikQQSp8leGUs6rAQa8PREVSsVYHdo0fTtsXNGNxktUiLAn9iu3LDn374nLPOKNjmzBOmX3HZ4u697nce+MZ37vvnwYpyxWXvHywOkPb8+te/9uCDP/IVpfP4aZVSkcCKi2/ZtLkSKL/61eqtW7c+8i8/mTt7xgcWL8oryowpUw3u+x6Ev6Y0oRZDCKv2W+tbve9xaxI3jJM4iHzf81JqiqA009I3vvbW1Vddeekli7r37r7pxhuiwCWcJJGvxWpQVhoamgzbdmOlqa0t19hU9hXPDUyFXL4Se6Hkvk2l7HmN7RN+8sPvzpg66eEHH0QiNlZTKTXkC1HoM6Yw4cigZjrk2ZQ314M2XD5+n0ynS0SSkEhg6YoXKlHoWPZJJ039+E03tR038bRTZ676wcMrV6760FXv+7sv/g87P6mtTVm6dOn8+fNMTQmSSA2DBktxHEdXtYJKG1Z3d3eQKH9zyy2/XrWyvdnZtW3rH51xugNI7NQwPbds2zZLM9mRaU/gpZOEYSj1z3R15pn17466k405agSDDhOlzEin6I4S24oCxlZdL8ycPW/SjJO+/9MVDzz0yM79A6/s3HPygvNzjn3nV7618ZXNTS0TXTu/+uWNxdhpntL19LPrKpDxfPvjz63ZVax0F/Wu0+Zu27Z9+eoNp597ybY3u9dvObj2/+7a1d0fqUYUQYHBJTNQdK+qgaaGZI2F16cuOqqjtYuM7vCpqhd/rFZ4mO8qyNhOFI/RMUaDPgsOjQqjfaXiRP1BuVc3dc3OEfJj04yCkuKWiYaO3aAqsqBUiVkuTBSrUXEj1c4l5VJOj1XLqBhmgqaKvRbuTd5bFqoCzcp5gWq1tuAXTt7xfJQNAREOoileRvRBKIVjHfCGIZDjNte0UYZH8u+xik9BUBLNyeeFwTQXAlktwn0Y6xTLaUnsRib/cAe4rQYzYqUJTsNSUsFOSB6wlEYcE7KuKzlbN+y8ZYUEIs+V5WHNxFT8ILQKObdcwX9HYBFGlPLhsRGOqCmn4wbJsi4EgI5EdCXXEIMq9iPdjHQDkg1tZflIBrQIa5aLALLO0GrpgecatiVLLixXRwHvNm3TVo1KGcaHbliD0fsrQaLynEY9GLrKgndY9sNQS9egpL8yl6F9wZaKm0sZVd75OCJJjGwigtR5oo9CoQHWZkZ+k6OFXhli4AcRaklTNZAFK45YLzNV0yb8xiyqYYN+ydQTI/RgfvQ/6OkuFQfgqDIIaqpwYJDZFgtS5HzC0EelDMJi8wbCAd1IPDLngRuN7Fu983EEnqwJDeaBlGM/cMt+34E4dP2K6+RzIfFIplk6kKCYRE5h05yGFd0wVMvUhG5HkeuqUAhmWTnrsquuijy/r7ePpe0olLwH6/4wchW0oWfnc1E24TJQPTOyNMYIVjEVOlNznGxSNgbA390n48jDlDomTrjykvdNKFgM1lu27ly+8peKZyj5BhbMlNCH7EUh8dBSDDNvW+VySRRC701lwdnvaXIaVixb1jl75i2f+vAdd3x327ZtWhhZuuGHrHArsuQfkrALE78MHIt9KThExHqiLktU4oz4K9MxIhCAcVRZWX3nY9ya1Gk5CufNPeX22/4sDhJHCT/+0Wubmic+s/rZxoYm5g2YabPNumDMLgzJ9wzsm9DSxAyKEGVr4ec/8+kz585b8eRTve7gvzzy1I7Nr9uaamsaa8PsygiDUlIu51krVgKVWYvChKZSsPWcocF7JLGdslfJBsELSGFiMUldkOPTZDZ4ZNIytNgn0kRBJVa+8qXbN6xe/aW77r766mu+9e3vf+f7X7/vaw8s/8WyL9/+jwcHB79wzz333PtPx1d62iZO0gsNn7711kkdbYtOn+KVlJ9+7/5P3fmFO776pW/edddvt+34py999a233po198StO7du3bz38veff3Bf76233rp1128/fuONH7zyCubXjy5/4v7v/0CV2KwR2kOCM/rUZY6ZgXkHZY478IhERZuxoymzZ86ac/r8cxe899V167GuzjalzTaD3v1TJjRNbm8MvMHpx7fqfuXmmz7qqP5Hl1z/1PLl27YcfO2VLTf8yUfcSvG4Nqsh78D2j59S2LFpw2dv/suFp83uPG7CzX/xya4TWi9deMGJx0/92J9f/d37v3nPV/7nf73hg3NPPjmOApw9DkKTSScpIrHYwx/jHkJyeWfw4H6kiDd89nO3TGp0dm5/67bbbrMKLaGvaJEPWwtKg6XBPmxOM5XnfrP2jc1bt2/b0tBQgAj6kVEsB8WKa8QJ9NyNCEgFhvmVv1q1Y8cuZsdPLX9sx6ZNg4OKO1hcdMGFDbryJx/+CEHrtwfjtuYWDJRRlWkQo6m0LgmHwx/jBllxXae5lV0+NP+pW267cvHF/+HqK1UnHzE1tiTRmHdyEydO7PG9IIpKJbiCZjoOMdmtuAzuicagb1VK5WZVYw4ZJlpIDoyolCR2DmIEhbDtHKQC4mPt2LmL0Pn5v/3vW7dvLzS3DnqRpkEzEtM0iWtCdSxbGc4b1EU7bnOFOJJnMxn9MFnVufub/8tVlTvv+caBcmXtxgN/dfNffPnuu6dNbw5iBhFnQotmNreWY6Whpa1j0lRmaetf3XDhwln/eM9dDTkHSI6Tl5yRqjS1tJQrAb3xVKOM4+XUfFvHL9e8sPaN3ru++c9fuOPLX7z9TrvQFBCzGYFlOFaBqgRCKg57jDu6miZTZD8Igj17S6+/tmmw4q19ZdO+/uLGLVvXvvxyueS+/PLLD//86Te279q29+D23f2vv7qhu7e/u6fnNy+u375734YNbxzoLg267ouvbXxrf+mV9a8P9A70HOh78cX1FT85MKCseWXDgZ7egVK4Zu26nXu6Vz373ECRTTnGo48/tW3nLt3OC9HD84Mwhi3KlKhu4BmKrkdE0EdGV4Y7Q8i3n5QGGbwLhUJJsm+xkjNln2Kxz2FIJKqbjpfLsacG74Xi6mEUFov5SZODsqtgxLC+1qaoUmZ7pm7Z0b7upgkToOiYtJLTbNP0BvtVJpkNTezyU9h5RCy1LSuX9xMaD23H9LzAYCZAwj7yx4yumPPvARIji2IhNsKsNZ9coamrthmz/JaEeJXGDBMeauT6YbH5BriL4gfEfQwsDGN4fIsQvWSAXUPwYMuKyn5O1djrRuKPJ0KddiJTlsDgvTADxouEjZ4kB3kaSqWZJpkITDSE+chNyNAYMXYkyLqBh3fQB5gqAsH6A89jv5bMMYRSgc/0vQrTJeYWse+r5HroeGKWIKGGDeuBykFiSLoB2DBtFAlZU2KXUNFHB5mIxBBBM4Kda1olDM0GxyuXNVJ1WAGN00e+MYNIrJKAw3BIN+JKhRuJITsjU2jZbtfDeGXdwIN4xErTlvBA4iayhFtm7TFjJ/hwHpXLBE9ugZ9CInsUBFTj03crcFfQirwMg4SJxCvHIdJgcrRM8AU5GSPLcQLycabJS9n2JmYvLgCNDWmTCrJszKqu51npNkBEL1EHKYhPHv6oW4nX8Q7pTdqW6CFNKNMu/SALChIhzUwrGJTJwZDa8F3JwuZgaTJjwERxXeROsgvMwCNh65WZiDBHgfZFTiPGHCSVMhMOwyHDqkRuWZK6STx91qx8oQBO5jx0AJzI07AN30eTzGAMpgfIAJs6PESxiDoHugEMJpKhRRttHR1dXV2UJ0HAHyJgWylJ9LC398Q5cxoaYOfiHlhdWMJs5bAc3Ex6id1JOWsB5C/JOEPWNc0tFhGciisCBa2q6rzTTw+KRd22p06d2tjYKJJNWVumyTAdMPCOwHVRosQ/kmlHcNQfQlKfBBtH1s606dOnTJmybcvmXEMD+KdMncqbyv39HZ3TTj+jC03uO7CfBMzkqVOa21srbhlviiql1ta2hkIBJog4ECnnzDMmdLSTodRtc/LUyVhlnu2pqjJ//mkzZnT2Foue5/b39x3cuweVOoXcxEkdnu/SGvtac/mcnXPaOtqZS3puhVk4hox0xkSalfNZN/BgjZnSQKIjszBktNizZw+yv+KKKzzPI4PG88uWLZszZ85xxx2HLPbv38/JpEmTmpqa1q9f/8brr3edffbck+egJ3q2evXq7m7/0ksXu77X09Pjuu7FF1+Ma9FI9959L7300rx583hjZ2cnQWXBggWP/OIXp5xyyllnnUVNvOOJJ1bkcrmLLrqoUqk0NjcVi8Xljz5KzXS2NSbG4cK65lpVIAajaRJj45jeDwwM5Jqa6Bkj/s9+9jPsJgi9zenxyEM/bmjIn3jirJdeepGpxPTpUzsmdZxyykmPPLps6U8fYlN4b8+BfB7OZq5a+fSzv1y1cOEF27dvfej+b2EaFe7u27Nz5/Znnnn6hScemzpt8sGe/XbO6uo6DWz/56Ef4/yTJ08mHJDIRFgrV66UwENpGpCG0dQ5qwuS+kKCEZSuS4xhY2w+/+abb/KygwcP7t60CZ8RU3ZdtIdmFNueMWMGSjvnnHOmT5++d+/eWbNmbty4YWDPHtwV8XNr2rRpW7ZsKe7bN72zE6W99MILCi4dhvI4Q30uJyetrc3Nzbt37z7hhBO2b9/evWMHPejv70d1tI88B3fv5tW9vb1ZUKyDa1RxXZAiJGJaOjDExSLYMFH0OWHCBEASD1AsL6YCIDFUpgbEgrVr1y5bunTFihUb1q3Dlujo7K6uyy+/HGmUi8WWlpZB5hcmi1UWsqMjrRMmzJ07d+/e7paWNh4vF0sEJNRVKpXQG2IFPLGgo6MD/FVsponUsCnBkXpj1ehG4Rp1URck2mNwoy5RUcnn6V+ZkyDgBLmSzsDx+vr6oNh8Ll68+MSuLhAuXLjwuiVLFi1ahFWvW/ey63rgRCjySJLwrIjDNFEUGK7/4yW45cAAwAdRLF2/5rrrECIgURT+397efu3115933nlr1qzBdXkjTelNTa2trVgKEqeRUWjqXKj1kstglIUAxMs4HkXInqM4MNDc0oSYw3J5wpQpdIUB0LAsIv6+ffvcwcGGVqYTLfSPcnkjQ3wQLfzAB4qlQUILdijPwn4gABZ54/YDB7tZOXIrFUCCgZeiseaWFmwEctPY3k60Exn092PNKBZBY95t7e2U8TpGuCxhhwjeBnAkrasLUsyVR2sPM6LLkCVZQ+miuGvq9BAx4Qycp5qXcAcBzNskmi648Lz+vmJrUyPTy5/9/F99DAHTgMSQ2oPfMjW0bU+s14ZLSJDEfiNFtw1YFFYqpijBkwE/RiQ0H5TLDKryasqzCgJFzH6on0NQR4KsP05CnWxbOs14nbKzbFAR6pomD1nKsvMFaBzMTXKtzDIp559lC8PUSECH06d38tZ/e+75wcGSblrC8Sw77C8a+QZIaeSTnjN01gjCUHccy7AogX+rlEClmBDLXq2EHx1Frs+0KldogHQxoMESeREVaCRzy0NBDiEXRdUzVyph8VgdgyS2lGB4/BQq5ejEDQCIqrFJJJrWhP1AYkUoNbmSYk21HeOEdIXWAG80NElMTplG4JOwAZRJa2IOKIWkLr9LITfLu+CPMmHUYM7iO6n9S6RApWywSONFZm5Db+Rk6BipybpkoFobGk2WnlEEpsJ5iiHAV5knMUtKZ0sR81es07ToNCaNIJC3PI6O8qx5MF1QSRNDx0AYelimjEvselAtR4pdeK/kW3lWniPxbrNGQuYWI5J2gE6D1MGNJQrK2pYhVZGyQK0SMmm2zlE3OvF6DuDx7vSUJD8TIJlPIH4kTNcFJz6WSp32s2iM7LFw/I06qAi5oApaMByHK+Dhi9IZfvCWejUlWd9I6vCuzPwoEaVhujINkKBCs4xhMpmk/XTjiTR1hNFVuehGmpD5xNAhay3pAplIKZNCGrvSZRbyvUMVj4UTpDLcjZEo0lIKkFFdTQ4/OXSWgh+6OtZPMAr+0FNCyiSVBMkgrqtbNVONjdCs1MyqMWM61rBliz/VXmULROkF2NJ+i1sduSZHoz7WsNbpT+bPteiaLvSxUWqocs28M9VJebbv9MhWBIeaeddPWOgd8x2EYMrFAsejyTGbOvqFEloONbIsRtZ6V9Nkdj1CTZANymrPp9KqhrFhbdcaOZrf1fh/CE6G7poKxT5TMEezn+/Su9NsYxpd2XIA7RT2IL9Whm3wiQSEAxC3uEAKQ6pDn2M7wLvUzSNplpUiiIKMDtBGQioZnTQzJuOHbP4hYZsYPtsO+Jk2/svKLllgOCTnpPdrRORtb8ri1dsKj+Il2U3oFBSfXDjdII1IyjBlVyGqFEo8OEg2NWCriVA35nke24YcNmKw/DdWv0Wl2fgz1t2jU8aCLGye9C9Kg+/JBoo0P4xtGqwuQDbbmrRJkzpCz0MSjux6RMdRWCLDOzogHZ3+H9FbZYbJtAF6TNqSZE1KqrFKjV00LAf3Hfzwf7pW+/Rf38w+aNa0ZUej/DKDXVR59rNmNp0aNqdonmVJ2QWOuR5TRxom2B7NCgSMPwoDl5S9bepsdyr3Hrz08ss+cv1l6i+95LHHnr/73nvCGIpvM6cJvIBc/+gIk0XorGwoDh2RpN/1Ssy5MFR2rDPRU9nSx+/iZJ4WVAbPWfDeWz7z6fZWXX28Lyk0Ks/92+bb/+HO/t4+u7GFJad0s96hYATqseaTmBUYiShElRzKZDtUsQ/Mixdd+MlP/FVLs8peMPXJATFpUg2kt7/3v3+08pnV/mBZsQuMLQwmo/UgIMW9j6UDoXPghKwRyn4Qz+08afZ1V195zVXnR76kZvkBvvpsr8wP5TcCLCvllHUbtj75zJrfrH11T3dPSMojYi8nfsqiqJbIrvqMCB0rKOmPrIXx30U4DS3tLdOPP+59F561+Pz3TGrLBaVYi7Uo3bf1/wCARyud9uxDLAAAAABJRU5ErkJggg==;" vertex="1" parent="1">
          <mxGeometry x="720" y="290.75" width="76" height="81" as="geometry" />
        </mxCell>
        <mxCell id="kM9Xeybq4EzYfr0AlQyo-18" value="Availability zone B" style="outlineConnect=0;gradientColor=none;html=1;whiteSpace=wrap;fontSize=12;fontStyle=0;shape=mxgraph.aws4.group;grIcon=mxgraph.aws4.group_availability_zone;strokeColor=#545B64;fillColor=none;verticalAlign=top;align=left;spacingLeft=30;fontColor=#545B64;dashed=1;" vertex="1" parent="1">
          <mxGeometry x="610.5" y="527" width="229.5" height="300" as="geometry" />
        </mxCell>
        <mxCell id="kM9Xeybq4EzYfr0AlQyo-19" value="Auto Scaling group" style="points=[[0,0],[0.25,0],[0.5,0],[0.75,0],[1,0],[1,0.25],[1,0.5],[1,0.75],[1,1],[0.75,1],[0.5,1],[0.25,1],[0,1],[0,0.75],[0,0.5],[0,0.25]];outlineConnect=0;gradientColor=none;html=1;whiteSpace=wrap;fontSize=12;fontStyle=0;shape=mxgraph.aws4.groupCenter;grIcon=mxgraph.aws4.group_auto_scaling_group;grStroke=1;strokeColor=#D86613;fillColor=none;verticalAlign=top;align=center;fontColor=#D86613;dashed=1;spacingTop=25;" vertex="1" parent="1">
          <mxGeometry x="690" y="559.5" width="130" height="237.5" as="geometry" />
        </mxCell>
        <mxCell id="kM9Xeybq4EzYfr0AlQyo-20" value="" style="shape=image;verticalLabelPosition=bottom;labelBackgroundColor=#ffffff;verticalAlign=top;aspect=fixed;imageAspect=0;image=data:image/png,iVBORw0KGgoAAAANSUhEUgAAAEwAAABRCAIAAAD3vdc5AAAYcGlDQ1BJQ0MgUHJvZmlsZQAAWIWVWQc8le3fv+6zz7HPsffeZO+9994kHOtYccxQIskqUSFKJZmVSqESkYZSRg9JEsmoFCoqI+9t1PO8z//9vO/nvT6f676+53f9rt+61v07NwBcnb6RkWEIRgDCI2KoDqYG/G7uHvzYSQABbsAMFADClxwdqW9nZwXg8rv972VpEOaGy3OZDVn/2f+/FqJ/QDQZAMgLxn7+0eRwGN8FAJVGjqTGAIAxgulC8TGRGzgYxsxU2EAYJ2/goC18dAP7beGKTR4nB0MYNwOAo/X1pQYBQN8J0/njyEGwHPp3cB8xwp8SAbP+gLEOOdjXHwAuNZhHOjx89waGKxCH+SNhnAtjNb9/yAz6b/L9/sj39Q36g7f82iw4I0p0ZJjvnv9naP7vEh4W+1uHKFxpg6lmDhv+wzEcCt1tuYFpYTwb4WdjuxFrGP+g+G/FHQAEITjWzHmLH8FNjjaE4wdYYSzn72tkCWNuGJtEhNlYbdP9Aikm5jCGVwsigRJj7rQ9NjMg2thxW+Yp6m4H2984kGqovz32si91U+8Gf2dsqLP+tvyh4ADz3/K/JQY7ucKYAACSEEdxsYExPYyZo0MdLbd4kIKJwYY2v3mosQ4b9gvDWC0gwtRgSz7SK5Bq4rDNHxke/dtfZEYwxdxmGxfHBDuZbcUHWUv23bSfHcaNARH6zr/lBES7Wf32xT/AyHjLd+SzgAjnbX+Ro5ExBg7bY+cjw+y2+VG4gDDTDbogjDmj4xy3x6K0YuDFuSUfZRUZY+e0ZSfKJ8TXwm7LHlQcsAKGwAjwg1i4+oHdIARQns02zcK/tnpMgC+ggiAQAGS2Kb9HuG72RMBPR5AIPsEoAET/GWew2RsA4mD62h/q1lMGBG72xm2OCAVTMA4HliAM/h27OSrijzYX8A6mUP5DOxm2NQyuG33/SdOHKVbblNjfcvkZfnNijDFGGDOMCUYCxYnSQWmirOCnHlwVUGoo9d/W/s2PnkL3od+iB9Bj6Je7KGnUf9liDcZg+SbbHvv902OUKCxTGWWA0oalw5JRrChOIINSgvXoo3Rhzcow1XDb7g3f+f8HP/948I+Yb/Ph5fAIPBteDy/+75H0kvTKf6RsRPSf8dmy1e9PVA3/9Pxbv+E/4uwPt5b/5kRmIhuQD5HtyC5kC7IJ8CPbkM3IbuSdDfxnDb3bXEO/tTls2hMKy6H8hz7fbZ0bkYyWq5N7L7e63QdiAhJiNjaY4e7IPVRKUHAMvz58CwTwm0eQZaX5FeQU5AHYuFO2jqmvDpt3BcTa8zeNfBAA1XkA8Mt/08K/AnAF3uP81n/TRLzhbYYBoHqKHEuN26KhNh5o+DRggHcUB+AFQkAc9kgBqABNoAeMgQWwBU7AHXjDcQ6G1zMVxINkkAoyQA44Ck6AEnAGnAfV4BK4BppAC2gHD8AT0AsGwCt4/UyCj2AeLIEVCIKwEB1EgjggPkgEkoIUIDVIBzKGrCAHyB3ygYKgCCgWSoYOQDlQAVQCnYNqoKvQTagd6oL6oJfQOPQe+gItI5AIWgQzggchitiBUEPoIywRToidiCBEFCIRkY44gihGlCMuIhoR7YgniAHEGOIjYhEJkDRIVqQAUgaphjRE2iI9kIFIKnIfMhtZiCxHXkbegmf6OXIMOYv8icKgSCh+lAy8hs1QzigyKgq1D5WLKkFVoxpRnajnqHHUPOoXmg7NjZZCa6DN0W7oIHQ8OgNdiK5E30Dfh3fTJHoJg8GwYsQwqvBudMeEYJIwuZjTmHrMXUwfZgKziMViObBSWG2sLdYXG4PNwJ7EXsS2Yfuxk9gfOBocH04BZ4LzwEXg0nCFuFpcK64fN41bwTPiRfAaeFu8P34PPg9fgb+F78FP4lcITAQxgjbBiRBCSCUUEy4T7hNGCF9paGgEadRp7GkoNPtpimmu0DyiGaf5SUuklaQ1pPWijaU9QltFe5f2Je1XOjo6UTo9Og+6GLojdDV09+hG6X7Qk+hl6c3p/elT6EvpG+n76T8z4BlEGPQZvBkSGQoZGhh6GGYZ8YyijIaMvoz7GEsZbzK+YFxkIjHJM9kyhTPlMtUydTHNELFEUaIx0Z+YTjxPvEecICFJQiRDEpl0gFRBuk+aZMYwizGbM4cw5zBfYn7GPM9CZFFicWFJYCllucMyxopkFWU1Zw1jzWO9xjrIuszGw6bPFsCWxXaZrZ/tOzsXux57AHs2ez37APsyBz+HMUcoRz5HE8drThSnJKc9ZzxnGed9zlkuZi5NLjJXNtc1rmFuBLcktwN3Evd57m7uRR5eHlOeSJ6TPPd4ZnlZefV4Q3iP87byvucj8enwUfiO87XxfeBn4dfnD+Mv5u/knxfgFjATiBU4J/BMYEVQTNBZME2wXvC1EEFITShQ6LhQh9C8MJ+wtXCycJ3wsAheRE0kWKRI5KHId1ExUVfRQ6JNojNi7GLmYolidWIj4nTiuuJR4uXif0lgJNQkQiVOS/RKIiSVJYMlSyV7pBBSKlIUqdNSfdJoaXXpCOly6RcytDL6MnEydTLjsqyyVrJpsk2yn3cI7/DYkb/j4Y5fcspyYXIVcq/kifIW8mnyt+S/KEgqkBVKFf5SpFM0UUxRbFZcUJJSClAqUxpSJilbKx9S7lBeU1FVoapcVnmvKqzqo3pK9YUas5qdWq7aI3W0uoF6inqL+k8NFY0YjWsac5oymqGatZozWmJaAVoVWhPagtq+2ue0x3T4dXx0zuqM6Qro+uqW677VE9Lz16vUm9aX0A/Rv6j/2UDOgGpww+C7oYbhXsO7RkgjU6Nso2fGRGNn4xLjURNBkyCTOpN5U2XTJNO7ZmgzS7N8sxfmPOZk8xrzeQtVi70WnZa0lo6WJZZvrSStqFa3rBHWFtbHrEdsRGwibJpsga257THb13ZidlF2t+0x9nb2pfZTDvIOyQ4PHUmOuxxrHZecDJzynF45izvHOne4MLh4udS4fHc1ci1wHXPb4bbX7Yk7pzvFvdkD6+HiUemx6GnsecJz0kvZK8NrcKfYzoSdXd6c3mHed3Yx7PLd1eCD9nH1qfVZ9bX1Lfdd9DP3O+U3TzYkF5E/+uv5H/d/H6AdUBAwHagdWBA4E6QddCzofbBucGHwLMWQUkJZCDELORPyPdQ2tCp0Pcw1rD4cF+4TfjOCGBEa0bmbd3fC7r5IqciMyLEojagTUfNUS2plNBS9M7o5hhl+ee+OFY89GDsepxNXGvcj3iW+IYEpISKhe4/knqw904kmiReSUEnkpI5kgeTU5PG9+nvP7YP2+e3rSBFKSU+Z3G+6vzqVkBqa+jRNLq0g7dsB1wO30nnS96dPHDQ9WJdBn0HNeHFI89CZTFQmJfNZlmLWyaxf2f7Zj3PkcgpzVnPJuY8Pyx8uPrx+JPDIszyVvLKjmKMRRwfzdfOrC5gKEgsmjlkfazzOfzz7+LcTu050FSoVnikiFMUWjRVbFTefFD559ORqSXDJQKlBaf0p7lNZp76f9j/dX6ZXdvkMz5mcM8tnKWeHzpmeaywXLS88jzkfd36qwqXi4QW1CzWVnJU5lWtVEVVj1Q7VnTWqNTW13LV5dYi62Lr3F70u9l4yutR8WebyuXrW+pwr4ErslQ9Xfa4OXrO81tGg1nD5usj1UzdIN7IbocY9jfNNwU1jze7NfTctbnbc0rx147bs7aoWgZbSOyx38loJremt622JbYt3I+/Otge1T3Ts6nh1z+3eX532nc/uW95/9MDkwb2H+g/bHmk/aunS6Lr5WO1x0xOVJ43dyt03nio/vfFM5Vljj2pPc696760+rb7Wft3+9udGzx/8Zf7XkwGbgb5B58GhF14vxob8h2Zehr1cGI4bXnm1fwQ9kv2a8XXhKPdo+RuJN/VjKmN3xo3Gu986vn01QZ74+C763epk+hTdVOE033TNjMJMy3uT970fPD9Mfoz8uDKb8Ynp06nP4p+vz+nNdc+7zU8uUBfWv+R+5fha9U3pW8ei3eLoUvjSyvfsHxw/qn+q/Xy47Lo8vRK/il0tXpNYu/XL8tfIevj6eqQv1XfzVQAJV0RgIABfqgCgcweA1AunCZ5bOd92QcIvHwi4dYFkoY+IdPhG7UFloE0wSMwTbDEuAm9FkKDB0szS9tM10VcxVDLWMzUTO0hPmHtZhljfsM2wf+RY4FzmWuNB8GL5CPx0AkRBohCrMLsImyi7GLc4jwS/JL+UoLSwjKis2A5pOTl5RQUVRQ0lXWVjFXNVczUTdRMNE01DLX1tLR0NXSU9WX1RAx5DZiOC0brxV5Mp05dm3eYtFtWWx6xSrENs3GyN7ZTtxRy4HBmdcM5IF8gV4YZyx3swenJ4Ce+U8ZbYJezD58vpx0Im+RMDSIGsQVzBghTpENVQkzCXcEpE8u6CyIqos9Ti6PyY3NisuOz4IwnFe6oTW5Ne7QX7pFN27T+Z+uqAYPrug+2HMJlCWQrZBjmOuYGHE4/k51UfvZs/XLB4nOmETKFFUWDxgZNlJTdL+0+9O714BnuW45xkudZ52wq/CzGVB6sKq6trbtY+rhu++OHSz3rcFbar4td0G9yvR93IajzdVN/cdrPrVs/t3pYndzpar7aV3k1p39WhcY94b6rz5v3aB6ce5jxK6PJ7bP5Etpu+e/bp/WeneiJ7DfpIfRP9156n/mU/IDKIGnz/onuo/mXBcMwrlxG115yvV0dH37SPXRjPert7wvmd1qQwvMqWpv+auf6+6EPKx7BZ8ify58i5nPkbC3Nf9b6dWyJ9L/4ptfxsNeWXxvr6P+ZfATmDKkBbYlgwr7ENuFx8EMGIRpKWgXaVbpp+iGGI8Q3TO+In0lfmJZY11hW2NfZfHGucS1xfued4pnhH+Pr57wvcFKwUyhEOE7ESlRTDi30Q75KokcyWokhbysjI0snO7eiTuy5fpJCsSFayVzZQUVAVUCOqrat/1hjR7NJq1C7XydWN1/PRtzBQMOQ0Qhi9N35mcsU03yza3MlCxZLNcsXqjfU9m1rbfLsk+0AHR0d9J3lnAReSK9Z12e2j+4hHt+cdr/qdZ72P7Trkk+xL9aOQff09ApwC7YNsgi0pliFmoZphsuECESy7aSIRkatRP6g/o9di0XHEeKEEjT1OidFJhckte6dSaPbzpcqkaR+wSfc7GJ9x+FBlZlvWcPb3XObDCkfs8yKOHs6vK3h07N3x9ULOIuViu5OhJQdLz5xqPt1bNnPm1znmconz2hV2F8iVsVWHqovhc667bu4S8bJiveOVqKt51+oaOq+P3PjShGnmuCl5S+O2RYvbncDWmLaUu6ntBzoO3svoPHQ/80H2w9xHh7sOPz785HB37tOcZ1k9h3rT+1L79z6P+ytqYPdg5IuYoaSXB4ePvSofaXj9YPTlm0/j4C1xQvCd/KTOlPm038zZ958+Ks8mfWr9/GtecyHuy+Wv7xbZlyy/p/xo+Dm9wr3qsJb9q3N7/o0R+sgdyM+odvQhjCNWHLuAu4nPIDjQcNOM0p6nC6dXZ0AwtDOmM1kQGYi9pKPMtiwMLE9Zs9lM2CH2Zo4ITiHOIa4cbh3uTzylvGa83/jK+M34PwscF9QQHBHaK8wv3CriLbIqWiymJNYtHiC+KnFMUkqyTcpRako6VUZEZkg2d4fBjm9yVfKeCnQKbYqRSgJK/cppKgoq46p5atpqn9RLNcw1FjXPa9lr/dKu03HXxere0CPrE/XvGkQa8hv2GqUZKxlPm5SY2sLvHbfNoyykLN5Zlll5WLNaP7cpsHWwI9kN2p908HYUdvzgdNU50cXYlcF12K3SPdrDwJPWc9DrzM5gbwXvlV33ffJ9vfwk/JbInf7HAnwDFYNQQYPBtZSUEKdQ6TB02JvwWxHFu+MjXaM0qLzRqOjZmIHY9rj6+LKEvD2pifFJocn+e3fuc0tx2u+Qap9mf8Ah3emge8bOQwGZoVnR2Sk5mbkFh8uO1OQ1Hr2X31cweuzzCVShRJFX8dGT90tWTsme9is7cebx2dVyhfMBFSUXeqpQ1Vo18bX1dR8vSV4Oqa+9MndNpWH/9e5Gjqaw5s5bfLdTWt62WrW1tMt3XOyUun/1ocGj4ccJ3XxPe3sO9zk9Fx0Agx+H3g1/eA3eiIzvmqidQs8kfgSfKubJX3WX1H46rxZvzP/Wf38bBaMCwIlDAGz8n+NQA0DuRQDE9gDABueednQAOKkDhIApgBY7AGSh/ef+gODEkwBIgAdIAjVgBueXYXBOWQTqQReYAGsQO6QMOULR0AmoGXoN53zSCBdEKqIeMYpkQBog45GXkFNwluaFKkW9gjMxH/QF9CeMCiYV8wzLgw3HtuFIOAquHc+Jj8X3ExQJRYRVGjLNU1p12mo6drpcegR9Ev13hliGJcZEJogpm8hKrCCpkXqZQ1iwLBdYjVmn2DLZpdh7OWI4OThbufy5abiv8XjwInkv8XnCGUGfQJ6grRCT0HPhIhFPUQHRKbGL4tESGpKQZJdUvrQnvDrnZft3tMhVyhco7FOkKDkqa6jwqUKqY2ot6sc1QjS1tei1RrRrdGJ0dfVwen36DQbXDZuMbhm3mtwz7TLrMR+0GLWctlqwXrHF2bHaizqoOVo5kZ2TXYpdW91mPEie+l6RO8u9B3wIvvp+SeRm/++BakFJwe0hhFDnsIrwxd1mkWVRc9FaMTmxo/FKCUf3LCS5Jj/Yp53SmmqZNpGelaGdCbL6cq4cPpVXkG92DHn8fmF+cUCJ4SnpMsGzIuVKFTaVUdWltU8ugXrVqzYN7jeCm5Jvnrh97U5/21IHb6fZg5hHZx8/617rkenb+fzIwN0h0jB55NLo7Dj3hNqk3rT8e/oPL2aPfN4x175g9qXzm8JiydLyD/ufF5YXVjXWUn7d3Tw/tuafCM+/BFAFJsAVhIB94DioA51gFPyASJAcZANFQEehBuglAiAk4Cw/DXEV8RbO462Q6cg25ApKG3UA1Y1mRweiGzF4jDemEcuIDcM+wUnj8nCLeC/8A4IsoYgGSRNFM07rTPuYzpCulV6L/g6cxT5itGcchfPUdeJxkizpKXMEnHk2s/qy0bA1swdysHI85NzDJc01zl3EY8uL4+3g289vIIAReCpYKOQrLCu8KtItWiYWJW4swSXxRfKx1HnpFBlPWc0dEnLs8nj5VYU5xQmlF8qPVW6rXlQrUT+kQdX01DLUltRh1FnUHdZr1a83uGrYYNRkfNukzbTT7LF5r8ULyzdW09YLNit2OHtWBzFHdSdrZ3+Xva4lbjfdhz3WvAR3WnjH7Drr0+MHkVX8IwJqAqeCRSkhIVdDl8NNIwp3z0RpUfdGt8Wi4qziixKmEtWTjiRP7zNOqU6lT9tzYBo+T3ozLbIe5pjldh9xyBvLTznGe/xuYWAx/cnmUv/TpLIHZ/eWq5z/cuFqVWyNVh3m4sDlC1eSr3ldV2mkb5q4ef32gTs2bex3xztqOqkPtB5huwaf1Dzd3+PVp/NcZIBp8NGQ88vJV4mvmUevjTmNr05UT7pPM8x0fcictfzMOPdi4ezXkEWV74gfPculq0G/FLfnHwkwgHbzBBAHKvAKcAPh4CA4A26DYXj/C0IWUCxUAQ0iaBBG8M7vQOKQ9sgzyC8oC1QVGo+mot9gnODdboMdwJFxP/GFBHXCJM1JWj3aEboken76LoZ4RknGCaYzRD+SBOk780OWMtYkNk92PQ4pTnYuGm4E9yrPMu8qPxDAwm+gPMKyItqiDmJB4vslTkregPPueVnGHQpyrvL7FCoUe5RWVCRU3dUK1Ps1mbXctSt05vS09Q8bvDFSNM4xGTfTMi+0+GJlZ33JltYuzP6xo6RTjvMHVwu3Wg+8J8XrobforoM+k36G5MoAZKB/0D2KaEhG6Ey4VUR9JEtUAnUsxij2cjx7wr49H5Pc4H2qklKVypF2JB11MDnjS6ZH1tXs9Vynw1VHlo865l8+RjhOOfGgSKo49+RcqeupO2WiZ/Lhs9//fPcFzcqqaqaaxNqpi46XWupFr+RdXWrwvv6gUabpaPP8Lfvbl+8QWgPbWtuJHQH3Gu+jHtg9LH008VjiCaW78ul4D2evfd/B/uvP3w4QBuVeOAxRXx4Zrnl1b2Tg9dTowpvVcegtdgLzDjMJJpenPk2Pzjx93/yh/GPmbMQn689Sc9i5N/PNC1lfPL5KfP3yrWUxbcnoO+Z754+Un5o/F5YvrHisElYb18i/6H5dW3ffmP/oQEWFzesDojUAAD26vv5VFABsAQBr+evrK+Xr62vn4WRjBIC7YVvfkzbvGkYAznJtoL4r7wX+/S1n61vTP/KYf7dg8yba1ArfRJstfCuB/wIDd97KNrRe7AAAAKJlWElmTU0AKgAAAAgABgEGAAMAAAABAAIAAAESAAMAAAABAAEAAAEaAAUAAAABAAAAVgEbAAUAAAABAAAAXgEoAAMAAAABAAIAAIdpAAQAAAABAAAAZgAAAAAAAABIAAAAAQAAAEgAAAABAAOShgAHAAAAEgAAAJCgAgAEAAAAAQAAAEygAwAEAAAAAQAAAFEAAAAAQVNDSUkAAABTY3JlZW5zaG90ZbpqEAAAAAlwSFlzAAALEwAACxMBAJqcGAAAA09pVFh0WE1MOmNvbS5hZG9iZS54bXAAAAAAADx4OnhtcG1ldGEgeG1sbnM6eD0iYWRvYmU6bnM6bWV0YS8iIHg6eG1wdGs9IlhNUCBDb3JlIDUuNC4wIj4KICAgPHJkZjpSREYgeG1sbnM6cmRmPSJodHRwOi8vd3d3LnczLm9yZy8xOTk5LzAyLzIyLXJkZi1zeW50YXgtbnMjIj4KICAgICAgPHJkZjpEZXNjcmlwdGlvbiByZGY6YWJvdXQ9IiIKICAgICAgICAgICAgeG1sbnM6dGlmZj0iaHR0cDovL25zLmFkb2JlLmNvbS90aWZmLzEuMC8iCiAgICAgICAgICAgIHhtbG5zOmV4aWY9Imh0dHA6Ly9ucy5hZG9iZS5jb20vZXhpZi8xLjAvIj4KICAgICAgICAgPHRpZmY6UmVzb2x1dGlvblVuaXQ+MjwvdGlmZjpSZXNvbHV0aW9uVW5pdD4KICAgICAgICAgPHRpZmY6WVJlc29sdXRpb24+NzI8L3RpZmY6WVJlc29sdXRpb24+CiAgICAgICAgIDx0aWZmOlhSZXNvbHV0aW9uPjcyPC90aWZmOlhSZXNvbHV0aW9uPgogICAgICAgICA8dGlmZjpPcmllbnRhdGlvbj4xPC90aWZmOk9yaWVudGF0aW9uPgogICAgICAgICA8dGlmZjpDb21wcmVzc2lvbj4xPC90aWZmOkNvbXByZXNzaW9uPgogICAgICAgICA8dGlmZjpQaG90b21ldHJpY0ludGVycHJldGF0aW9uPjI8L3RpZmY6UGhvdG9tZXRyaWNJbnRlcnByZXRhdGlvbj4KICAgICAgICAgPGV4aWY6UGl4ZWxZRGltZW5zaW9uPjgxPC9leGlmOlBpeGVsWURpbWVuc2lvbj4KICAgICAgICAgPGV4aWY6VXNlckNvbW1lbnQ+U2NyZWVuc2hvdDwvZXhpZjpVc2VyQ29tbWVudD4KICAgICAgICAgPGV4aWY6UGl4ZWxYRGltZW5zaW9uPjc2PC9leGlmOlBpeGVsWERpbWVuc2lvbj4KICAgICAgPC9yZGY6RGVzY3JpcHRpb24+CiAgIDwvcmRmOlJERj4KPC94OnhtcG1ldGE+CgRTWNoAABvySURBVHgB3ZwJvBXVnedrr7r3vv3xQDYfAi4I8rQ1RtwIihqNUUdnTDp8enFi7HRPJnZnMZrp+UzSbWuS6bh0FjuayTqJhkybDlHEDQmJrUERUdCRHcQAD3jbfffe2mu+/6p73yLvCi+JDZ+pz+PeqlOnTp3ffzu/8z/noq7qT6JQMWzFNJStu/p+vmz50ytX9fYPKkmsKFr6p1SPJP3W9Nr16G9VHX39h75Kstcf0myUlhuaEkWKocw7dc7V11z5vvPn5xylPKCYqvypT/Umtq0EofLww4/9+KGlPb19ulMwTAt4sYAcdWiJEiljg0nqdWJUA3/4C1XRdF33vApflqW5fT2abcyfe+onP/HxrlM7BvoVNU7UZ4qJ7yt333vfiuWPmfkG08klilpxfd2wkkNAgi8+SmDqiUfT9CiKDEPXNC0IK4auGqrqVkqFnPn5z91y3oLTdPA8NZh88Qv3/urZXxcKjbGieoGfqAC0A3+0zmrGotYxy3rl9Tr3ByvXtDiMEL6CiamxpvEVx0Fg6ImaRHfc/vcLzjlJ72s+5ckVj2uOAzav5NpNzaEbKLqpalrCE7U/5KRqKoUoEzzHziGRQ9eSJFZ13XSsKPASzzfzORQWhuGLL60788zzVeXcJWY+n+qa+jyhxXgwNqkZqbDTwqrYRZsiqbGOo+WTookk0Uw9jmPFqyiWZRmm75boqGmYYeDPOelkkGh4ZuCHAsAw0KdumTyAbARLkkJSBZ5aPR8bJLYi9f/dD7FR+hoBVo/tHIB9rFfVFd0IKVX1117daBj5gsgAO1RVvpUkjPA60SShdViNKUxBIJXHOnh8rOJ3vaz63qxbMc4pxoi7KWGU6IauK5EWCVzKs6oqUKSr2acglmc4sPjshE/17ePK0J2jcxLHWYfE9FAgR9prGRqiBMdTTCdzvDG7V0MIrur9TIfHGMha31FQ5k/VgtSyCJVcAnIYTHa7apnq2GZZa/NY+c4UkGFQq2N4ao1JpgxsVH0HTR4K4xjV4aEdTUswVRiaHGOArAXUYUijzCB97Nj5SDKLq+ot6xfQUgULRlHuGCDfEQAPZ9J5x1r/jjczQKhhKP6nL0/gLUO9MDLMNe0NlQ85cWrfw8UwnjRMD5cc5TPpuYScQ4Nipoz/X3wy09DblJkwnteGbqPKVOraoNxIDZxv0WHWItMwXcYl5BeH8CqZrxhQorRcRihuBFBKVdEjeTqGXdKMmBC1YzH5RG4iZ74TJZB3pDNVLa7IW6RBDvnMRu30svZRNU3RnjrKG2sV5IY8S/t8jtcnh1uBH9DMCJYgPc8OCFQmCy4FgnRF/tWoYvoQbxfmKF9yGyEMPTMCYbXF3+9r/CDTXtEfOkYfEXkKIhV82k8JZzgu1JCaKEoVVVJZcIrUMQfRgOhKiwWuqFJawiy4ikUDaWtVYDWbq17K22riHFmtenvkV6ZGSsYPstaM9JJOySGdrr1YdJsItlRJlMOfU5DM3FIwaQlzPq6qzyAAzBlpxSI4na4L9PRTGv49D6D+DiAzZJlEU7OULgEYqPibwJO/rGucCDYpSW/TfTDjuZSLymsCEp0IcAEH/+RbBJe9qcZjpPbIQ+RY/xhSI1V+B5DDDWd4UiOU3qGKtH+AypScBpjUPzHJ1Oyw1VQuKRdJhD+nPVXF5jHrNLcigNN2+BSo2ZEhqsquVniE3+MHidJSu6q+gF7K+xNdSBR9IHLTZoZWytWYPARKqcIQYfAAJWLFuhqHqkoFVZxTvLEWSkVe8nj6mZ5VR8KsVARRlc9wlaG6wyeZaDOxDZce/qzWjdQ+BZ/oEGRxbCaxgU8loVgrMzjwxukAIuaX6hYdcwge+aaCLsNQxi7SnoAEePylVp9WevvHO4J6e+XsetwgmZCSEEtkdCRRFCl+ZJJPCPy4XPJLA2F5MAk8m5wZWg08LQnJ6qJkzkUYvicjKdlB7oZBUz53wvGTHYZqxFEpCVr5C5TQk6E3iaQZXmQQu0KZ/osbY+1i8KLG6tfYwDKXzz7HDZLHSBABj7m4nctplhX09ndOnnz2GfMvueDc895zRsFSI69sanFLIWdFkWMqSVCxcpYSBYaW2HGQy5s2wMLK5Zcu+vkP/6GjvUlXwq4/mp831YKa2Hpi6opD+kKLA6+EREPfreFI/bl2ceTf4/ZJdEOSk4jFuz2FpImh2c6SD13/sWvPeOW17hNmT+zuV/7zf/nrXW++5bmKXynFhq2iC0NzeLLc77ol1cqjjVwh98zTj25+9bnf7tg046S5993zmes+eMPBnu7AtolSge9phUZy3Jaulb3IKuR99J8ZOV+ZyWbGfwTmO26QjO+SnaTfmh3rOoqNiwOFfO71zf3XX3PVjNmzHl/+ozNOO3X3rh1XXX7lh669diAKlv7kp8uXP3nxxRddddG5pM86Tz71+RdevOveu957+qn/8erL7/3aN/72c5/N68qPHnjg/vu+7hrGkiVLYk1/6umV3/7eDyNxDs2vVCRtg30So0egymAeVqXjNldV14IodL1yEIZRFJLLVAwj8CqT25qvueKyv7zxz3fuKT3/7Opzzz7ri//txlVPPvbGhnVf/ftPzJzZWbCNa9//nmLPvpee//VNSy6ZPaOzvaXpioVnRZXBNc/9mmWJH3z321tf33jqjGnLlj74xLKH/+ama87smueXSjnDMgyzikQQSp8leGUs6rAQa8PREVSsVYHdo0fTtsXNGNxktUiLAn9iu3LDn374nLPOKNjmzBOmX3HZ4u697nce+MZ37vvnwYpyxWXvHywOkPb8+te/9uCDP/IVpfP4aZVSkcCKi2/ZtLkSKL/61eqtW7c+8i8/mTt7xgcWL8oryowpUw3u+x6Ev6Y0oRZDCKv2W+tbve9xaxI3jJM4iHzf81JqiqA009I3vvbW1Vddeekli7r37r7pxhuiwCWcJJGvxWpQVhoamgzbdmOlqa0t19hU9hXPDUyFXL4Se6Hkvk2l7HmN7RN+8sPvzpg66eEHH0QiNlZTKTXkC1HoM6Yw4cigZjrk2ZQ314M2XD5+n0ynS0SSkEhg6YoXKlHoWPZJJ039+E03tR038bRTZ676wcMrV6760FXv+7sv/g87P6mtTVm6dOn8+fNMTQmSSA2DBktxHEdXtYJKG1Z3d3eQKH9zyy2/XrWyvdnZtW3rH51xugNI7NQwPbds2zZLM9mRaU/gpZOEYSj1z3R15pn17466k405agSDDhOlzEin6I4S24oCxlZdL8ycPW/SjJO+/9MVDzz0yM79A6/s3HPygvNzjn3nV7618ZXNTS0TXTu/+uWNxdhpntL19LPrKpDxfPvjz63ZVax0F/Wu0+Zu27Z9+eoNp597ybY3u9dvObj2/+7a1d0fqUYUQYHBJTNQdK+qgaaGZI2F16cuOqqjtYuM7vCpqhd/rFZ4mO8qyNhOFI/RMUaDPgsOjQqjfaXiRP1BuVc3dc3OEfJj04yCkuKWiYaO3aAqsqBUiVkuTBSrUXEj1c4l5VJOj1XLqBhmgqaKvRbuTd5bFqoCzcp5gWq1tuAXTt7xfJQNAREOoileRvRBKIVjHfCGIZDjNte0UYZH8u+xik9BUBLNyeeFwTQXAlktwn0Y6xTLaUnsRib/cAe4rQYzYqUJTsNSUsFOSB6wlEYcE7KuKzlbN+y8ZYUEIs+V5WHNxFT8ILQKObdcwX9HYBFGlPLhsRGOqCmn4wbJsi4EgI5EdCXXEIMq9iPdjHQDkg1tZflIBrQIa5aLALLO0GrpgecatiVLLixXRwHvNm3TVo1KGcaHbliD0fsrQaLynEY9GLrKgndY9sNQS9egpL8yl6F9wZaKm0sZVd75OCJJjGwigtR5oo9CoQHWZkZ+k6OFXhli4AcRaklTNZAFK45YLzNV0yb8xiyqYYN+ydQTI/RgfvQ/6OkuFQfgqDIIaqpwYJDZFgtS5HzC0EelDMJi8wbCAd1IPDLngRuN7Fu983EEnqwJDeaBlGM/cMt+34E4dP2K6+RzIfFIplk6kKCYRE5h05yGFd0wVMvUhG5HkeuqUAhmWTnrsquuijy/r7ePpe0olLwH6/4wchW0oWfnc1E24TJQPTOyNMYIVjEVOlNznGxSNgbA390n48jDlDomTrjykvdNKFgM1lu27ly+8peKZyj5BhbMlNCH7EUh8dBSDDNvW+VySRRC701lwdnvaXIaVixb1jl75i2f+vAdd3x327ZtWhhZuuGHrHArsuQfkrALE78MHIt9KThExHqiLktU4oz4K9MxIhCAcVRZWX3nY9ya1Gk5CufNPeX22/4sDhJHCT/+0Wubmic+s/rZxoYm5g2YabPNumDMLgzJ9wzsm9DSxAyKEGVr4ec/8+kz585b8eRTve7gvzzy1I7Nr9uaamsaa8PsygiDUlIu51krVgKVWYvChKZSsPWcocF7JLGdslfJBsELSGFiMUldkOPTZDZ4ZNIytNgn0kRBJVa+8qXbN6xe/aW77r766mu+9e3vf+f7X7/vaw8s/8WyL9/+jwcHB79wzz333PtPx1d62iZO0gsNn7711kkdbYtOn+KVlJ9+7/5P3fmFO776pW/edddvt+34py999a233po198StO7du3bz38veff3Bf76233rp1128/fuONH7zyCubXjy5/4v7v/0CV2KwR2kOCM/rUZY6ZgXkHZY478IhERZuxoymzZ86ac/r8cxe899V167GuzjalzTaD3v1TJjRNbm8MvMHpx7fqfuXmmz7qqP5Hl1z/1PLl27YcfO2VLTf8yUfcSvG4Nqsh78D2j59S2LFpw2dv/suFp83uPG7CzX/xya4TWi9deMGJx0/92J9f/d37v3nPV/7nf73hg3NPPjmOApw9DkKTSScpIrHYwx/jHkJyeWfw4H6kiDd89nO3TGp0dm5/67bbbrMKLaGvaJEPWwtKg6XBPmxOM5XnfrP2jc1bt2/b0tBQgAj6kVEsB8WKa8QJ9NyNCEgFhvmVv1q1Y8cuZsdPLX9sx6ZNg4OKO1hcdMGFDbryJx/+CEHrtwfjtuYWDJRRlWkQo6m0LgmHwx/jBllxXae5lV0+NP+pW267cvHF/+HqK1UnHzE1tiTRmHdyEydO7PG9IIpKJbiCZjoOMdmtuAzuicagb1VK5WZVYw4ZJlpIDoyolCR2DmIEhbDtHKQC4mPt2LmL0Pn5v/3vW7dvLzS3DnqRpkEzEtM0iWtCdSxbGc4b1EU7bnOFOJJnMxn9MFnVufub/8tVlTvv+caBcmXtxgN/dfNffPnuu6dNbw5iBhFnQotmNreWY6Whpa1j0lRmaetf3XDhwln/eM9dDTkHSI6Tl5yRqjS1tJQrAb3xVKOM4+XUfFvHL9e8sPaN3ru++c9fuOPLX7z9TrvQFBCzGYFlOFaBqgRCKg57jDu6miZTZD8Igj17S6+/tmmw4q19ZdO+/uLGLVvXvvxyueS+/PLLD//86Te279q29+D23f2vv7qhu7e/u6fnNy+u375734YNbxzoLg267ouvbXxrf+mV9a8P9A70HOh78cX1FT85MKCseWXDgZ7egVK4Zu26nXu6Vz373ECRTTnGo48/tW3nLt3OC9HD84Mwhi3KlKhu4BmKrkdE0EdGV4Y7Q8i3n5QGGbwLhUJJsm+xkjNln2Kxz2FIJKqbjpfLsacG74Xi6mEUFov5SZODsqtgxLC+1qaoUmZ7pm7Z0b7upgkToOiYtJLTbNP0BvtVJpkNTezyU9h5RCy1LSuX9xMaD23H9LzAYCZAwj7yx4yumPPvARIji2IhNsKsNZ9coamrthmz/JaEeJXGDBMeauT6YbH5BriL4gfEfQwsDGN4fIsQvWSAXUPwYMuKyn5O1djrRuKPJ0KddiJTlsDgvTADxouEjZ4kB3kaSqWZJpkITDSE+chNyNAYMXYkyLqBh3fQB5gqAsH6A89jv5bMMYRSgc/0vQrTJeYWse+r5HroeGKWIKGGDeuBykFiSLoB2DBtFAlZU2KXUNFHB5mIxBBBM4Kda1olDM0GxyuXNVJ1WAGN00e+MYNIrJKAw3BIN+JKhRuJITsjU2jZbtfDeGXdwIN4xErTlvBA4iayhFtm7TFjJ/hwHpXLBE9ugZ9CInsUBFTj03crcFfQirwMg4SJxCvHIdJgcrRM8AU5GSPLcQLycabJS9n2JmYvLgCNDWmTCrJszKqu51npNkBEL1EHKYhPHv6oW4nX8Q7pTdqW6CFNKNMu/SALChIhzUwrGJTJwZDa8F3JwuZgaTJjwERxXeROsgvMwCNh65WZiDBHgfZFTiPGHCSVMhMOwyHDqkRuWZK6STx91qx8oQBO5jx0AJzI07AN30eTzGAMpgfIAJs6PESxiDoHugEMJpKhRRttHR1dXV2UJ0HAHyJgWylJ9LC398Q5cxoaYOfiHlhdWMJs5bAc3Ex6id1JOWsB5C/JOEPWNc0tFhGciisCBa2q6rzTTw+KRd22p06d2tjYKJJNWVumyTAdMPCOwHVRosQ/kmlHcNQfQlKfBBtH1s606dOnTJmybcvmXEMD+KdMncqbyv39HZ3TTj+jC03uO7CfBMzkqVOa21srbhlviiql1ta2hkIBJog4ECnnzDMmdLSTodRtc/LUyVhlnu2pqjJ//mkzZnT2Foue5/b39x3cuweVOoXcxEkdnu/SGvtac/mcnXPaOtqZS3puhVk4hox0xkSalfNZN/BgjZnSQKIjszBktNizZw+yv+KKKzzPI4PG88uWLZszZ85xxx2HLPbv38/JpEmTmpqa1q9f/8brr3edffbck+egJ3q2evXq7m7/0ksXu77X09Pjuu7FF1+Ma9FI9959L7300rx583hjZ2cnQWXBggWP/OIXp5xyyllnnUVNvOOJJ1bkcrmLLrqoUqk0NjcVi8Xljz5KzXS2NSbG4cK65lpVIAajaRJj45jeDwwM5Jqa6Bkj/s9+9jPsJgi9zenxyEM/bmjIn3jirJdeepGpxPTpUzsmdZxyykmPPLps6U8fYlN4b8+BfB7OZq5a+fSzv1y1cOEF27dvfej+b2EaFe7u27Nz5/Znnnn6hScemzpt8sGe/XbO6uo6DWz/56Ef4/yTJ08mHJDIRFgrV66UwENpGpCG0dQ5qwuS+kKCEZSuS4xhY2w+/+abb/KygwcP7t60CZ8RU3ZdtIdmFNueMWMGSjvnnHOmT5++d+/eWbNmbty4YWDPHtwV8XNr2rRpW7ZsKe7bN72zE6W99MILCi4dhvI4Q30uJyetrc3Nzbt37z7hhBO2b9/evWMHPejv70d1tI88B3fv5tW9vb1ZUKyDa1RxXZAiJGJaOjDExSLYMFH0OWHCBEASD1AsL6YCIDFUpgbEgrVr1y5bunTFihUb1q3Dlujo7K6uyy+/HGmUi8WWlpZB5hcmi1UWsqMjrRMmzJ07d+/e7paWNh4vF0sEJNRVKpXQG2IFPLGgo6MD/FVsponUsCnBkXpj1ehG4Rp1URck2mNwoy5RUcnn6V+ZkyDgBLmSzsDx+vr6oNh8Ll68+MSuLhAuXLjwuiVLFi1ahFWvW/ey63rgRCjySJLwrIjDNFEUGK7/4yW45cAAwAdRLF2/5rrrECIgURT+397efu3115933nlr1qzBdXkjTelNTa2trVgKEqeRUWjqXKj1kstglIUAxMs4HkXInqM4MNDc0oSYw3J5wpQpdIUB0LAsIv6+ffvcwcGGVqYTLfSPcnkjQ3wQLfzAB4qlQUILdijPwn4gABZ54/YDB7tZOXIrFUCCgZeiseaWFmwEctPY3k60Exn092PNKBZBY95t7e2U8TpGuCxhhwjeBnAkrasLUsyVR2sPM6LLkCVZQ+miuGvq9BAx4Qycp5qXcAcBzNskmi648Lz+vmJrUyPTy5/9/F99DAHTgMSQ2oPfMjW0bU+s14ZLSJDEfiNFtw1YFFYqpijBkwE/RiQ0H5TLDKryasqzCgJFzH6on0NQR4KsP05CnWxbOs14nbKzbFAR6pomD1nKsvMFaBzMTXKtzDIp559lC8PUSECH06d38tZ/e+75wcGSblrC8Sw77C8a+QZIaeSTnjN01gjCUHccy7AogX+rlEClmBDLXq2EHx1Frs+0KldogHQxoMESeREVaCRzy0NBDiEXRdUzVyph8VgdgyS2lGB4/BQq5ejEDQCIqrFJJJrWhP1AYkUoNbmSYk21HeOEdIXWAG80NElMTplG4JOwAZRJa2IOKIWkLr9LITfLu+CPMmHUYM7iO6n9S6RApWywSONFZm5Db+Rk6BipybpkoFobGk2WnlEEpsJ5iiHAV5knMUtKZ0sR81es07ToNCaNIJC3PI6O8qx5MF1QSRNDx0AYelimjEvselAtR4pdeK/kW3lWniPxbrNGQuYWI5J2gE6D1MGNJQrK2pYhVZGyQK0SMmm2zlE3OvF6DuDx7vSUJD8TIJlPIH4kTNcFJz6WSp32s2iM7LFw/I06qAi5oApaMByHK+Dhi9IZfvCWejUlWd9I6vCuzPwoEaVhujINkKBCs4xhMpmk/XTjiTR1hNFVuehGmpD5xNAhay3pAplIKZNCGrvSZRbyvUMVj4UTpDLcjZEo0lIKkFFdTQ4/OXSWgh+6OtZPMAr+0FNCyiSVBMkgrqtbNVONjdCs1MyqMWM61rBliz/VXmULROkF2NJ+i1sduSZHoz7WsNbpT+bPteiaLvSxUWqocs28M9VJebbv9MhWBIeaeddPWOgd8x2EYMrFAsejyTGbOvqFEloONbIsRtZ6V9Nkdj1CTZANymrPp9KqhrFhbdcaOZrf1fh/CE6G7poKxT5TMEezn+/Su9NsYxpd2XIA7RT2IL9Whm3wiQSEAxC3uEAKQ6pDn2M7wLvUzSNplpUiiIKMDtBGQioZnTQzJuOHbP4hYZsYPtsO+Jk2/svKLllgOCTnpPdrRORtb8ri1dsKj+Il2U3oFBSfXDjdII1IyjBlVyGqFEo8OEg2NWCriVA35nke24YcNmKw/DdWv0Wl2fgz1t2jU8aCLGye9C9Kg+/JBoo0P4xtGqwuQDbbmrRJkzpCz0MSjux6RMdRWCLDOzogHZ3+H9FbZYbJtAF6TNqSZE1KqrFKjV00LAf3Hfzwf7pW+/Rf38w+aNa0ZUej/DKDXVR59rNmNp0aNqdonmVJ2QWOuR5TRxom2B7NCgSMPwoDl5S9bepsdyr3Hrz08ss+cv1l6i+95LHHnr/73nvCGIpvM6cJvIBc/+gIk0XorGwoDh2RpN/1Ssy5MFR2rDPRU9nSx+/iZJ4WVAbPWfDeWz7z6fZWXX28Lyk0Ks/92+bb/+HO/t4+u7GFJad0s96hYATqseaTmBUYiShElRzKZDtUsQ/Mixdd+MlP/FVLs8peMPXJATFpUg2kt7/3v3+08pnV/mBZsQuMLQwmo/UgIMW9j6UDoXPghKwRyn4Qz+08afZ1V195zVXnR76kZvkBvvpsr8wP5TcCLCvllHUbtj75zJrfrH11T3dPSMojYi8nfsqiqJbIrvqMCB0rKOmPrIXx30U4DS3tLdOPP+59F561+Pz3TGrLBaVYi7Uo3bf1/wCARyud9uxDLAAAAABJRU5ErkJggg==;" vertex="1" parent="1">
          <mxGeometry x="720" y="697" width="76" height="81" as="geometry" />
        </mxCell>
        <mxCell id="kM9Xeybq4EzYfr0AlQyo-21" value="" style="shape=image;verticalLabelPosition=bottom;labelBackgroundColor=#ffffff;verticalAlign=top;aspect=fixed;imageAspect=0;image=data:image/png,iVBORw0KGgoAAAANSUhEUgAAAEwAAABRCAIAAAD3vdc5AAAYcGlDQ1BJQ0MgUHJvZmlsZQAAWIWVWQc8le3fv+6zz7HPsffeZO+9994kHOtYccxQIskqUSFKJZmVSqESkYZSRg9JEsmoFCoqI+9t1PO8z//9vO/nvT6f676+53f9rt+61v07NwBcnb6RkWEIRgDCI2KoDqYG/G7uHvzYSQABbsAMFADClxwdqW9nZwXg8rv972VpEOaGy3OZDVn/2f+/FqJ/QDQZAMgLxn7+0eRwGN8FAJVGjqTGAIAxgulC8TGRGzgYxsxU2EAYJ2/goC18dAP7beGKTR4nB0MYNwOAo/X1pQYBQN8J0/njyEGwHPp3cB8xwp8SAbP+gLEOOdjXHwAuNZhHOjx89waGKxCH+SNhnAtjNb9/yAz6b/L9/sj39Q36g7f82iw4I0p0ZJjvnv9naP7vEh4W+1uHKFxpg6lmDhv+wzEcCt1tuYFpYTwb4WdjuxFrGP+g+G/FHQAEITjWzHmLH8FNjjaE4wdYYSzn72tkCWNuGJtEhNlYbdP9Aikm5jCGVwsigRJj7rQ9NjMg2thxW+Yp6m4H2984kGqovz32si91U+8Gf2dsqLP+tvyh4ADz3/K/JQY7ucKYAACSEEdxsYExPYyZo0MdLbd4kIKJwYY2v3mosQ4b9gvDWC0gwtRgSz7SK5Bq4rDNHxke/dtfZEYwxdxmGxfHBDuZbcUHWUv23bSfHcaNARH6zr/lBES7Wf32xT/AyHjLd+SzgAjnbX+Ro5ExBg7bY+cjw+y2+VG4gDDTDbogjDmj4xy3x6K0YuDFuSUfZRUZY+e0ZSfKJ8TXwm7LHlQcsAKGwAjwg1i4+oHdIARQns02zcK/tnpMgC+ggiAQAGS2Kb9HuG72RMBPR5AIPsEoAET/GWew2RsA4mD62h/q1lMGBG72xm2OCAVTMA4HliAM/h27OSrijzYX8A6mUP5DOxm2NQyuG33/SdOHKVbblNjfcvkZfnNijDFGGDOMCUYCxYnSQWmirOCnHlwVUGoo9d/W/s2PnkL3od+iB9Bj6Je7KGnUf9liDcZg+SbbHvv902OUKCxTGWWA0oalw5JRrChOIINSgvXoo3Rhzcow1XDb7g3f+f8HP/948I+Yb/Ph5fAIPBteDy/+75H0kvTKf6RsRPSf8dmy1e9PVA3/9Pxbv+E/4uwPt5b/5kRmIhuQD5HtyC5kC7IJ8CPbkM3IbuSdDfxnDb3bXEO/tTls2hMKy6H8hz7fbZ0bkYyWq5N7L7e63QdiAhJiNjaY4e7IPVRKUHAMvz58CwTwm0eQZaX5FeQU5AHYuFO2jqmvDpt3BcTa8zeNfBAA1XkA8Mt/08K/AnAF3uP81n/TRLzhbYYBoHqKHEuN26KhNh5o+DRggHcUB+AFQkAc9kgBqABNoAeMgQWwBU7AHXjDcQ6G1zMVxINkkAoyQA44Ck6AEnAGnAfV4BK4BppAC2gHD8AT0AsGwCt4/UyCj2AeLIEVCIKwEB1EgjggPkgEkoIUIDVIBzKGrCAHyB3ygYKgCCgWSoYOQDlQAVQCnYNqoKvQTagd6oL6oJfQOPQe+gItI5AIWgQzggchitiBUEPoIywRToidiCBEFCIRkY44gihGlCMuIhoR7YgniAHEGOIjYhEJkDRIVqQAUgaphjRE2iI9kIFIKnIfMhtZiCxHXkbegmf6OXIMOYv8icKgSCh+lAy8hs1QzigyKgq1D5WLKkFVoxpRnajnqHHUPOoXmg7NjZZCa6DN0W7oIHQ8OgNdiK5E30Dfh3fTJHoJg8GwYsQwqvBudMeEYJIwuZjTmHrMXUwfZgKziMViObBSWG2sLdYXG4PNwJ7EXsS2Yfuxk9gfOBocH04BZ4LzwEXg0nCFuFpcK64fN41bwTPiRfAaeFu8P34PPg9fgb+F78FP4lcITAQxgjbBiRBCSCUUEy4T7hNGCF9paGgEadRp7GkoNPtpimmu0DyiGaf5SUuklaQ1pPWijaU9QltFe5f2Je1XOjo6UTo9Og+6GLojdDV09+hG6X7Qk+hl6c3p/elT6EvpG+n76T8z4BlEGPQZvBkSGQoZGhh6GGYZ8YyijIaMvoz7GEsZbzK+YFxkIjHJM9kyhTPlMtUydTHNELFEUaIx0Z+YTjxPvEecICFJQiRDEpl0gFRBuk+aZMYwizGbM4cw5zBfYn7GPM9CZFFicWFJYCllucMyxopkFWU1Zw1jzWO9xjrIuszGw6bPFsCWxXaZrZ/tOzsXux57AHs2ez37APsyBz+HMUcoRz5HE8drThSnJKc9ZzxnGed9zlkuZi5NLjJXNtc1rmFuBLcktwN3Evd57m7uRR5eHlOeSJ6TPPd4ZnlZefV4Q3iP87byvucj8enwUfiO87XxfeBn4dfnD+Mv5u/knxfgFjATiBU4J/BMYEVQTNBZME2wXvC1EEFITShQ6LhQh9C8MJ+wtXCycJ3wsAheRE0kWKRI5KHId1ExUVfRQ6JNojNi7GLmYolidWIj4nTiuuJR4uXif0lgJNQkQiVOS/RKIiSVJYMlSyV7pBBSKlIUqdNSfdJoaXXpCOly6RcytDL6MnEydTLjsqyyVrJpsk2yn3cI7/DYkb/j4Y5fcspyYXIVcq/kifIW8mnyt+S/KEgqkBVKFf5SpFM0UUxRbFZcUJJSClAqUxpSJilbKx9S7lBeU1FVoapcVnmvKqzqo3pK9YUas5qdWq7aI3W0uoF6inqL+k8NFY0YjWsac5oymqGatZozWmJaAVoVWhPagtq+2ue0x3T4dXx0zuqM6Qro+uqW677VE9Lz16vUm9aX0A/Rv6j/2UDOgGpww+C7oYbhXsO7RkgjU6Nso2fGRGNn4xLjURNBkyCTOpN5U2XTJNO7ZmgzS7N8sxfmPOZk8xrzeQtVi70WnZa0lo6WJZZvrSStqFa3rBHWFtbHrEdsRGwibJpsga257THb13ZidlF2t+0x9nb2pfZTDvIOyQ4PHUmOuxxrHZecDJzynF45izvHOne4MLh4udS4fHc1ci1wHXPb4bbX7Yk7pzvFvdkD6+HiUemx6GnsecJz0kvZK8NrcKfYzoSdXd6c3mHed3Yx7PLd1eCD9nH1qfVZ9bX1Lfdd9DP3O+U3TzYkF5E/+uv5H/d/H6AdUBAwHagdWBA4E6QddCzofbBucGHwLMWQUkJZCDELORPyPdQ2tCp0Pcw1rD4cF+4TfjOCGBEa0bmbd3fC7r5IqciMyLEojagTUfNUS2plNBS9M7o5hhl+ee+OFY89GDsepxNXGvcj3iW+IYEpISKhe4/knqw904kmiReSUEnkpI5kgeTU5PG9+nvP7YP2+e3rSBFKSU+Z3G+6vzqVkBqa+jRNLq0g7dsB1wO30nnS96dPHDQ9WJdBn0HNeHFI89CZTFQmJfNZlmLWyaxf2f7Zj3PkcgpzVnPJuY8Pyx8uPrx+JPDIszyVvLKjmKMRRwfzdfOrC5gKEgsmjlkfazzOfzz7+LcTu050FSoVnikiFMUWjRVbFTefFD559ORqSXDJQKlBaf0p7lNZp76f9j/dX6ZXdvkMz5mcM8tnKWeHzpmeaywXLS88jzkfd36qwqXi4QW1CzWVnJU5lWtVEVVj1Q7VnTWqNTW13LV5dYi62Lr3F70u9l4yutR8WebyuXrW+pwr4ErslQ9Xfa4OXrO81tGg1nD5usj1UzdIN7IbocY9jfNNwU1jze7NfTctbnbc0rx147bs7aoWgZbSOyx38loJremt622JbYt3I+/Otge1T3Ts6nh1z+3eX532nc/uW95/9MDkwb2H+g/bHmk/aunS6Lr5WO1x0xOVJ43dyt03nio/vfFM5Vljj2pPc696760+rb7Wft3+9udGzx/8Zf7XkwGbgb5B58GhF14vxob8h2Zehr1cGI4bXnm1fwQ9kv2a8XXhKPdo+RuJN/VjKmN3xo3Gu986vn01QZ74+C763epk+hTdVOE033TNjMJMy3uT970fPD9Mfoz8uDKb8Ynp06nP4p+vz+nNdc+7zU8uUBfWv+R+5fha9U3pW8ei3eLoUvjSyvfsHxw/qn+q/Xy47Lo8vRK/il0tXpNYu/XL8tfIevj6eqQv1XfzVQAJV0RgIABfqgCgcweA1AunCZ5bOd92QcIvHwi4dYFkoY+IdPhG7UFloE0wSMwTbDEuAm9FkKDB0szS9tM10VcxVDLWMzUTO0hPmHtZhljfsM2wf+RY4FzmWuNB8GL5CPx0AkRBohCrMLsImyi7GLc4jwS/JL+UoLSwjKis2A5pOTl5RQUVRQ0lXWVjFXNVczUTdRMNE01DLX1tLR0NXSU9WX1RAx5DZiOC0brxV5Mp05dm3eYtFtWWx6xSrENs3GyN7ZTtxRy4HBmdcM5IF8gV4YZyx3swenJ4Ce+U8ZbYJezD58vpx0Im+RMDSIGsQVzBghTpENVQkzCXcEpE8u6CyIqos9Ti6PyY3NisuOz4IwnFe6oTW5Ne7QX7pFN27T+Z+uqAYPrug+2HMJlCWQrZBjmOuYGHE4/k51UfvZs/XLB4nOmETKFFUWDxgZNlJTdL+0+9O714BnuW45xkudZ52wq/CzGVB6sKq6trbtY+rhu++OHSz3rcFbar4td0G9yvR93IajzdVN/cdrPrVs/t3pYndzpar7aV3k1p39WhcY94b6rz5v3aB6ce5jxK6PJ7bP5Etpu+e/bp/WeneiJ7DfpIfRP9156n/mU/IDKIGnz/onuo/mXBcMwrlxG115yvV0dH37SPXRjPert7wvmd1qQwvMqWpv+auf6+6EPKx7BZ8ify58i5nPkbC3Nf9b6dWyJ9L/4ptfxsNeWXxvr6P+ZfATmDKkBbYlgwr7ENuFx8EMGIRpKWgXaVbpp+iGGI8Q3TO+In0lfmJZY11hW2NfZfHGucS1xfued4pnhH+Pr57wvcFKwUyhEOE7ESlRTDi30Q75KokcyWokhbysjI0snO7eiTuy5fpJCsSFayVzZQUVAVUCOqrat/1hjR7NJq1C7XydWN1/PRtzBQMOQ0Qhi9N35mcsU03yza3MlCxZLNcsXqjfU9m1rbfLsk+0AHR0d9J3lnAReSK9Z12e2j+4hHt+cdr/qdZ72P7Trkk+xL9aOQff09ApwC7YNsgi0pliFmoZphsuECESy7aSIRkatRP6g/o9di0XHEeKEEjT1OidFJhckte6dSaPbzpcqkaR+wSfc7GJ9x+FBlZlvWcPb3XObDCkfs8yKOHs6vK3h07N3x9ULOIuViu5OhJQdLz5xqPt1bNnPm1znmconz2hV2F8iVsVWHqovhc667bu4S8bJiveOVqKt51+oaOq+P3PjShGnmuCl5S+O2RYvbncDWmLaUu6ntBzoO3svoPHQ/80H2w9xHh7sOPz785HB37tOcZ1k9h3rT+1L79z6P+ytqYPdg5IuYoaSXB4ePvSofaXj9YPTlm0/j4C1xQvCd/KTOlPm038zZ958+Ks8mfWr9/GtecyHuy+Wv7xbZlyy/p/xo+Dm9wr3qsJb9q3N7/o0R+sgdyM+odvQhjCNWHLuAu4nPIDjQcNOM0p6nC6dXZ0AwtDOmM1kQGYi9pKPMtiwMLE9Zs9lM2CH2Zo4ITiHOIa4cbh3uTzylvGa83/jK+M34PwscF9QQHBHaK8wv3CriLbIqWiymJNYtHiC+KnFMUkqyTcpRako6VUZEZkg2d4fBjm9yVfKeCnQKbYqRSgJK/cppKgoq46p5atpqn9RLNcw1FjXPa9lr/dKu03HXxere0CPrE/XvGkQa8hv2GqUZKxlPm5SY2sLvHbfNoyykLN5Zlll5WLNaP7cpsHWwI9kN2p908HYUdvzgdNU50cXYlcF12K3SPdrDwJPWc9DrzM5gbwXvlV33ffJ9vfwk/JbInf7HAnwDFYNQQYPBtZSUEKdQ6TB02JvwWxHFu+MjXaM0qLzRqOjZmIHY9rj6+LKEvD2pifFJocn+e3fuc0tx2u+Qap9mf8Ah3emge8bOQwGZoVnR2Sk5mbkFh8uO1OQ1Hr2X31cweuzzCVShRJFX8dGT90tWTsme9is7cebx2dVyhfMBFSUXeqpQ1Vo18bX1dR8vSV4Oqa+9MndNpWH/9e5Gjqaw5s5bfLdTWt62WrW1tMt3XOyUun/1ocGj4ccJ3XxPe3sO9zk9Fx0Agx+H3g1/eA3eiIzvmqidQs8kfgSfKubJX3WX1H46rxZvzP/Wf38bBaMCwIlDAGz8n+NQA0DuRQDE9gDABueednQAOKkDhIApgBY7AGSh/ef+gODEkwBIgAdIAjVgBueXYXBOWQTqQReYAGsQO6QMOULR0AmoGXoN53zSCBdEKqIeMYpkQBog45GXkFNwluaFKkW9gjMxH/QF9CeMCiYV8wzLgw3HtuFIOAquHc+Jj8X3ExQJRYRVGjLNU1p12mo6drpcegR9Ev13hliGJcZEJogpm8hKrCCpkXqZQ1iwLBdYjVmn2DLZpdh7OWI4OThbufy5abiv8XjwInkv8XnCGUGfQJ6grRCT0HPhIhFPUQHRKbGL4tESGpKQZJdUvrQnvDrnZft3tMhVyhco7FOkKDkqa6jwqUKqY2ot6sc1QjS1tei1RrRrdGJ0dfVwen36DQbXDZuMbhm3mtwz7TLrMR+0GLWctlqwXrHF2bHaizqoOVo5kZ2TXYpdW91mPEie+l6RO8u9B3wIvvp+SeRm/++BakFJwe0hhFDnsIrwxd1mkWVRc9FaMTmxo/FKCUf3LCS5Jj/Yp53SmmqZNpGelaGdCbL6cq4cPpVXkG92DHn8fmF+cUCJ4SnpMsGzIuVKFTaVUdWltU8ugXrVqzYN7jeCm5Jvnrh97U5/21IHb6fZg5hHZx8/617rkenb+fzIwN0h0jB55NLo7Dj3hNqk3rT8e/oPL2aPfN4x175g9qXzm8JiydLyD/ufF5YXVjXWUn7d3Tw/tuafCM+/BFAFJsAVhIB94DioA51gFPyASJAcZANFQEehBuglAiAk4Cw/DXEV8RbO462Q6cg25ApKG3UA1Y1mRweiGzF4jDemEcuIDcM+wUnj8nCLeC/8A4IsoYgGSRNFM07rTPuYzpCulV6L/g6cxT5itGcchfPUdeJxkizpKXMEnHk2s/qy0bA1swdysHI85NzDJc01zl3EY8uL4+3g289vIIAReCpYKOQrLCu8KtItWiYWJW4swSXxRfKx1HnpFBlPWc0dEnLs8nj5VYU5xQmlF8qPVW6rXlQrUT+kQdX01DLUltRh1FnUHdZr1a83uGrYYNRkfNukzbTT7LF5r8ULyzdW09YLNit2OHtWBzFHdSdrZ3+Xva4lbjfdhz3WvAR3WnjH7Drr0+MHkVX8IwJqAqeCRSkhIVdDl8NNIwp3z0RpUfdGt8Wi4qziixKmEtWTjiRP7zNOqU6lT9tzYBo+T3ozLbIe5pjldh9xyBvLTznGe/xuYWAx/cnmUv/TpLIHZ/eWq5z/cuFqVWyNVh3m4sDlC1eSr3ldV2mkb5q4ef32gTs2bex3xztqOqkPtB5huwaf1Dzd3+PVp/NcZIBp8NGQ88vJV4mvmUevjTmNr05UT7pPM8x0fcictfzMOPdi4ezXkEWV74gfPculq0G/FLfnHwkwgHbzBBAHKvAKcAPh4CA4A26DYXj/C0IWUCxUAQ0iaBBG8M7vQOKQ9sgzyC8oC1QVGo+mot9gnODdboMdwJFxP/GFBHXCJM1JWj3aEboken76LoZ4RknGCaYzRD+SBOk780OWMtYkNk92PQ4pTnYuGm4E9yrPMu8qPxDAwm+gPMKyItqiDmJB4vslTkregPPueVnGHQpyrvL7FCoUe5RWVCRU3dUK1Ps1mbXctSt05vS09Q8bvDFSNM4xGTfTMi+0+GJlZ33JltYuzP6xo6RTjvMHVwu3Wg+8J8XrobforoM+k36G5MoAZKB/0D2KaEhG6Ey4VUR9JEtUAnUsxij2cjx7wr49H5Pc4H2qklKVypF2JB11MDnjS6ZH1tXs9Vynw1VHlo865l8+RjhOOfGgSKo49+RcqeupO2WiZ/Lhs9//fPcFzcqqaqaaxNqpi46XWupFr+RdXWrwvv6gUabpaPP8Lfvbl+8QWgPbWtuJHQH3Gu+jHtg9LH008VjiCaW78ul4D2evfd/B/uvP3w4QBuVeOAxRXx4Zrnl1b2Tg9dTowpvVcegtdgLzDjMJJpenPk2Pzjx93/yh/GPmbMQn689Sc9i5N/PNC1lfPL5KfP3yrWUxbcnoO+Z754+Un5o/F5YvrHisElYb18i/6H5dW3ffmP/oQEWFzesDojUAAD26vv5VFABsAQBr+evrK+Xr62vn4WRjBIC7YVvfkzbvGkYAznJtoL4r7wX+/S1n61vTP/KYf7dg8yba1ArfRJstfCuB/wIDd97KNrRe7AAAAKJlWElmTU0AKgAAAAgABgEGAAMAAAABAAIAAAESAAMAAAABAAEAAAEaAAUAAAABAAAAVgEbAAUAAAABAAAAXgEoAAMAAAABAAIAAIdpAAQAAAABAAAAZgAAAAAAAABIAAAAAQAAAEgAAAABAAOShgAHAAAAEgAAAJCgAgAEAAAAAQAAAEygAwAEAAAAAQAAAFEAAAAAQVNDSUkAAABTY3JlZW5zaG90ZbpqEAAAAAlwSFlzAAALEwAACxMBAJqcGAAAA09pVFh0WE1MOmNvbS5hZG9iZS54bXAAAAAAADx4OnhtcG1ldGEgeG1sbnM6eD0iYWRvYmU6bnM6bWV0YS8iIHg6eG1wdGs9IlhNUCBDb3JlIDUuNC4wIj4KICAgPHJkZjpSREYgeG1sbnM6cmRmPSJodHRwOi8vd3d3LnczLm9yZy8xOTk5LzAyLzIyLXJkZi1zeW50YXgtbnMjIj4KICAgICAgPHJkZjpEZXNjcmlwdGlvbiByZGY6YWJvdXQ9IiIKICAgICAgICAgICAgeG1sbnM6dGlmZj0iaHR0cDovL25zLmFkb2JlLmNvbS90aWZmLzEuMC8iCiAgICAgICAgICAgIHhtbG5zOmV4aWY9Imh0dHA6Ly9ucy5hZG9iZS5jb20vZXhpZi8xLjAvIj4KICAgICAgICAgPHRpZmY6UmVzb2x1dGlvblVuaXQ+MjwvdGlmZjpSZXNvbHV0aW9uVW5pdD4KICAgICAgICAgPHRpZmY6WVJlc29sdXRpb24+NzI8L3RpZmY6WVJlc29sdXRpb24+CiAgICAgICAgIDx0aWZmOlhSZXNvbHV0aW9uPjcyPC90aWZmOlhSZXNvbHV0aW9uPgogICAgICAgICA8dGlmZjpPcmllbnRhdGlvbj4xPC90aWZmOk9yaWVudGF0aW9uPgogICAgICAgICA8dGlmZjpDb21wcmVzc2lvbj4xPC90aWZmOkNvbXByZXNzaW9uPgogICAgICAgICA8dGlmZjpQaG90b21ldHJpY0ludGVycHJldGF0aW9uPjI8L3RpZmY6UGhvdG9tZXRyaWNJbnRlcnByZXRhdGlvbj4KICAgICAgICAgPGV4aWY6UGl4ZWxZRGltZW5zaW9uPjgxPC9leGlmOlBpeGVsWURpbWVuc2lvbj4KICAgICAgICAgPGV4aWY6VXNlckNvbW1lbnQ+U2NyZWVuc2hvdDwvZXhpZjpVc2VyQ29tbWVudD4KICAgICAgICAgPGV4aWY6UGl4ZWxYRGltZW5zaW9uPjc2PC9leGlmOlBpeGVsWERpbWVuc2lvbj4KICAgICAgPC9yZGY6RGVzY3JpcHRpb24+CiAgIDwvcmRmOlJERj4KPC94OnhtcG1ldGE+CgRTWNoAABvySURBVHgB3ZwJvBXVnedrr7r3vv3xQDYfAi4I8rQ1RtwIihqNUUdnTDp8enFi7HRPJnZnMZrp+UzSbWuS6bh0FjuayTqJhkybDlHEDQmJrUERUdCRHcQAD3jbfffe2mu+/6p73yLvCi+JDZ+pz+PeqlOnTp3ffzu/8z/noq7qT6JQMWzFNJStu/p+vmz50ytX9fYPKkmsKFr6p1SPJP3W9Nr16G9VHX39h75Kstcf0myUlhuaEkWKocw7dc7V11z5vvPn5xylPKCYqvypT/Umtq0EofLww4/9+KGlPb19ulMwTAt4sYAcdWiJEiljg0nqdWJUA3/4C1XRdF33vApflqW5fT2abcyfe+onP/HxrlM7BvoVNU7UZ4qJ7yt333vfiuWPmfkG08klilpxfd2wkkNAgi8+SmDqiUfT9CiKDEPXNC0IK4auGqrqVkqFnPn5z91y3oLTdPA8NZh88Qv3/urZXxcKjbGieoGfqAC0A3+0zmrGotYxy3rl9Tr3ByvXtDiMEL6CiamxpvEVx0Fg6ImaRHfc/vcLzjlJ72s+5ckVj2uOAzav5NpNzaEbKLqpalrCE7U/5KRqKoUoEzzHziGRQ9eSJFZ13XSsKPASzzfzORQWhuGLL60788zzVeXcJWY+n+qa+jyhxXgwNqkZqbDTwqrYRZsiqbGOo+WTookk0Uw9jmPFqyiWZRmm75boqGmYYeDPOelkkGh4ZuCHAsAw0KdumTyAbARLkkJSBZ5aPR8bJLYi9f/dD7FR+hoBVo/tHIB9rFfVFd0IKVX1117daBj5gsgAO1RVvpUkjPA60SShdViNKUxBIJXHOnh8rOJ3vaz63qxbMc4pxoi7KWGU6IauK5EWCVzKs6oqUKSr2acglmc4sPjshE/17ePK0J2jcxLHWYfE9FAgR9prGRqiBMdTTCdzvDG7V0MIrur9TIfHGMha31FQ5k/VgtSyCJVcAnIYTHa7apnq2GZZa/NY+c4UkGFQq2N4ao1JpgxsVH0HTR4K4xjV4aEdTUswVRiaHGOArAXUYUijzCB97Nj5SDKLq+ot6xfQUgULRlHuGCDfEQAPZ9J5x1r/jjczQKhhKP6nL0/gLUO9MDLMNe0NlQ85cWrfw8UwnjRMD5cc5TPpuYScQ4Nipoz/X3wy09DblJkwnteGbqPKVOraoNxIDZxv0WHWItMwXcYl5BeH8CqZrxhQorRcRihuBFBKVdEjeTqGXdKMmBC1YzH5RG4iZ74TJZB3pDNVLa7IW6RBDvnMRu30svZRNU3RnjrKG2sV5IY8S/t8jtcnh1uBH9DMCJYgPc8OCFQmCy4FgnRF/tWoYvoQbxfmKF9yGyEMPTMCYbXF3+9r/CDTXtEfOkYfEXkKIhV82k8JZzgu1JCaKEoVVVJZcIrUMQfRgOhKiwWuqFJawiy4ikUDaWtVYDWbq17K22riHFmtenvkV6ZGSsYPstaM9JJOySGdrr1YdJsItlRJlMOfU5DM3FIwaQlzPq6qzyAAzBlpxSI4na4L9PRTGv49D6D+DiAzZJlEU7OULgEYqPibwJO/rGucCDYpSW/TfTDjuZSLymsCEp0IcAEH/+RbBJe9qcZjpPbIQ+RY/xhSI1V+B5DDDWd4UiOU3qGKtH+AypScBpjUPzHJ1Oyw1VQuKRdJhD+nPVXF5jHrNLcigNN2+BSo2ZEhqsquVniE3+MHidJSu6q+gF7K+xNdSBR9IHLTZoZWytWYPARKqcIQYfAAJWLFuhqHqkoFVZxTvLEWSkVe8nj6mZ5VR8KsVARRlc9wlaG6wyeZaDOxDZce/qzWjdQ+BZ/oEGRxbCaxgU8loVgrMzjwxukAIuaX6hYdcwge+aaCLsNQxi7SnoAEePylVp9WevvHO4J6e+XsetwgmZCSEEtkdCRRFCl+ZJJPCPy4XPJLA2F5MAk8m5wZWg08LQnJ6qJkzkUYvicjKdlB7oZBUz53wvGTHYZqxFEpCVr5C5TQk6E3iaQZXmQQu0KZ/osbY+1i8KLG6tfYwDKXzz7HDZLHSBABj7m4nctplhX09ndOnnz2GfMvueDc895zRsFSI69sanFLIWdFkWMqSVCxcpYSBYaW2HGQy5s2wMLK5Zcu+vkP/6GjvUlXwq4/mp831YKa2Hpi6opD+kKLA6+EREPfreFI/bl2ceTf4/ZJdEOSk4jFuz2FpImh2c6SD13/sWvPeOW17hNmT+zuV/7zf/nrXW++5bmKXynFhq2iC0NzeLLc77ol1cqjjVwh98zTj25+9bnf7tg046S5993zmes+eMPBnu7AtolSge9phUZy3Jaulb3IKuR99J8ZOV+ZyWbGfwTmO26QjO+SnaTfmh3rOoqNiwOFfO71zf3XX3PVjNmzHl/+ozNOO3X3rh1XXX7lh669diAKlv7kp8uXP3nxxRddddG5pM86Tz71+RdevOveu957+qn/8erL7/3aN/72c5/N68qPHnjg/vu+7hrGkiVLYk1/6umV3/7eDyNxDs2vVCRtg30So0egymAeVqXjNldV14IodL1yEIZRFJLLVAwj8CqT25qvueKyv7zxz3fuKT3/7Opzzz7ri//txlVPPvbGhnVf/ftPzJzZWbCNa9//nmLPvpee//VNSy6ZPaOzvaXpioVnRZXBNc/9mmWJH3z321tf33jqjGnLlj74xLKH/+ama87smueXSjnDMgyzikQQSp8leGUs6rAQa8PREVSsVYHdo0fTtsXNGNxktUiLAn9iu3LDn374nLPOKNjmzBOmX3HZ4u697nce+MZ37vvnwYpyxWXvHywOkPb8+te/9uCDP/IVpfP4aZVSkcCKi2/ZtLkSKL/61eqtW7c+8i8/mTt7xgcWL8oryowpUw3u+x6Ev6Y0oRZDCKv2W+tbve9xaxI3jJM4iHzf81JqiqA009I3vvbW1Vddeekli7r37r7pxhuiwCWcJJGvxWpQVhoamgzbdmOlqa0t19hU9hXPDUyFXL4Se6Hkvk2l7HmN7RN+8sPvzpg66eEHH0QiNlZTKTXkC1HoM6Yw4cigZjrk2ZQ314M2XD5+n0ynS0SSkEhg6YoXKlHoWPZJJ039+E03tR038bRTZ676wcMrV6760FXv+7sv/g87P6mtTVm6dOn8+fNMTQmSSA2DBktxHEdXtYJKG1Z3d3eQKH9zyy2/XrWyvdnZtW3rH51xugNI7NQwPbds2zZLM9mRaU/gpZOEYSj1z3R15pn17466k405agSDDhOlzEin6I4S24oCxlZdL8ycPW/SjJO+/9MVDzz0yM79A6/s3HPygvNzjn3nV7618ZXNTS0TXTu/+uWNxdhpntL19LPrKpDxfPvjz63ZVax0F/Wu0+Zu27Z9+eoNp597ybY3u9dvObj2/+7a1d0fqUYUQYHBJTNQdK+qgaaGZI2F16cuOqqjtYuM7vCpqhd/rFZ4mO8qyNhOFI/RMUaDPgsOjQqjfaXiRP1BuVc3dc3OEfJj04yCkuKWiYaO3aAqsqBUiVkuTBSrUXEj1c4l5VJOj1XLqBhmgqaKvRbuTd5bFqoCzcp5gWq1tuAXTt7xfJQNAREOoileRvRBKIVjHfCGIZDjNte0UYZH8u+xik9BUBLNyeeFwTQXAlktwn0Y6xTLaUnsRib/cAe4rQYzYqUJTsNSUsFOSB6wlEYcE7KuKzlbN+y8ZYUEIs+V5WHNxFT8ILQKObdcwX9HYBFGlPLhsRGOqCmn4wbJsi4EgI5EdCXXEIMq9iPdjHQDkg1tZflIBrQIa5aLALLO0GrpgecatiVLLixXRwHvNm3TVo1KGcaHbliD0fsrQaLynEY9GLrKgndY9sNQS9egpL8yl6F9wZaKm0sZVd75OCJJjGwigtR5oo9CoQHWZkZ+k6OFXhli4AcRaklTNZAFK45YLzNV0yb8xiyqYYN+ydQTI/RgfvQ/6OkuFQfgqDIIaqpwYJDZFgtS5HzC0EelDMJi8wbCAd1IPDLngRuN7Fu983EEnqwJDeaBlGM/cMt+34E4dP2K6+RzIfFIplk6kKCYRE5h05yGFd0wVMvUhG5HkeuqUAhmWTnrsquuijy/r7ePpe0olLwH6/4wchW0oWfnc1E24TJQPTOyNMYIVjEVOlNznGxSNgbA390n48jDlDomTrjykvdNKFgM1lu27ly+8peKZyj5BhbMlNCH7EUh8dBSDDNvW+VySRRC701lwdnvaXIaVixb1jl75i2f+vAdd3x327ZtWhhZuuGHrHArsuQfkrALE78MHIt9KThExHqiLktU4oz4K9MxIhCAcVRZWX3nY9ya1Gk5CufNPeX22/4sDhJHCT/+0Wubmic+s/rZxoYm5g2YabPNumDMLgzJ9wzsm9DSxAyKEGVr4ec/8+kz585b8eRTve7gvzzy1I7Nr9uaamsaa8PsygiDUlIu51krVgKVWYvChKZSsPWcocF7JLGdslfJBsELSGFiMUldkOPTZDZ4ZNIytNgn0kRBJVa+8qXbN6xe/aW77r766mu+9e3vf+f7X7/vaw8s/8WyL9/+jwcHB79wzz333PtPx1d62iZO0gsNn7711kkdbYtOn+KVlJ9+7/5P3fmFO776pW/edddvt+34py999a233po198StO7du3bz38veff3Bf76233rp1128/fuONH7zyCubXjy5/4v7v/0CV2KwR2kOCM/rUZY6ZgXkHZY478IhERZuxoymzZ86ac/r8cxe899V167GuzjalzTaD3v1TJjRNbm8MvMHpx7fqfuXmmz7qqP5Hl1z/1PLl27YcfO2VLTf8yUfcSvG4Nqsh78D2j59S2LFpw2dv/suFp83uPG7CzX/xya4TWi9deMGJx0/92J9f/d37v3nPV/7nf73hg3NPPjmOApw9DkKTSScpIrHYwx/jHkJyeWfw4H6kiDd89nO3TGp0dm5/67bbbrMKLaGvaJEPWwtKg6XBPmxOM5XnfrP2jc1bt2/b0tBQgAj6kVEsB8WKa8QJ9NyNCEgFhvmVv1q1Y8cuZsdPLX9sx6ZNg4OKO1hcdMGFDbryJx/+CEHrtwfjtuYWDJRRlWkQo6m0LgmHwx/jBllxXae5lV0+NP+pW267cvHF/+HqK1UnHzE1tiTRmHdyEydO7PG9IIpKJbiCZjoOMdmtuAzuicagb1VK5WZVYw4ZJlpIDoyolCR2DmIEhbDtHKQC4mPt2LmL0Pn5v/3vW7dvLzS3DnqRpkEzEtM0iWtCdSxbGc4b1EU7bnOFOJJnMxn9MFnVufub/8tVlTvv+caBcmXtxgN/dfNffPnuu6dNbw5iBhFnQotmNreWY6Whpa1j0lRmaetf3XDhwln/eM9dDTkHSI6Tl5yRqjS1tJQrAb3xVKOM4+XUfFvHL9e8sPaN3ru++c9fuOPLX7z9TrvQFBCzGYFlOFaBqgRCKg57jDu6miZTZD8Igj17S6+/tmmw4q19ZdO+/uLGLVvXvvxyueS+/PLLD//86Te279q29+D23f2vv7qhu7e/u6fnNy+u375734YNbxzoLg267ouvbXxrf+mV9a8P9A70HOh78cX1FT85MKCseWXDgZ7egVK4Zu26nXu6Vz373ECRTTnGo48/tW3nLt3OC9HD84Mwhi3KlKhu4BmKrkdE0EdGV4Y7Q8i3n5QGGbwLhUJJsm+xkjNln2Kxz2FIJKqbjpfLsacG74Xi6mEUFov5SZODsqtgxLC+1qaoUmZ7pm7Z0b7upgkToOiYtJLTbNP0BvtVJpkNTezyU9h5RCy1LSuX9xMaD23H9LzAYCZAwj7yx4yumPPvARIji2IhNsKsNZ9coamrthmz/JaEeJXGDBMeauT6YbH5BriL4gfEfQwsDGN4fIsQvWSAXUPwYMuKyn5O1djrRuKPJ0KddiJTlsDgvTADxouEjZ4kB3kaSqWZJpkITDSE+chNyNAYMXYkyLqBh3fQB5gqAsH6A89jv5bMMYRSgc/0vQrTJeYWse+r5HroeGKWIKGGDeuBykFiSLoB2DBtFAlZU2KXUNFHB5mIxBBBM4Kda1olDM0GxyuXNVJ1WAGN00e+MYNIrJKAw3BIN+JKhRuJITsjU2jZbtfDeGXdwIN4xErTlvBA4iayhFtm7TFjJ/hwHpXLBE9ugZ9CInsUBFTj03crcFfQirwMg4SJxCvHIdJgcrRM8AU5GSPLcQLycabJS9n2JmYvLgCNDWmTCrJszKqu51npNkBEL1EHKYhPHv6oW4nX8Q7pTdqW6CFNKNMu/SALChIhzUwrGJTJwZDa8F3JwuZgaTJjwERxXeROsgvMwCNh65WZiDBHgfZFTiPGHCSVMhMOwyHDqkRuWZK6STx91qx8oQBO5jx0AJzI07AN30eTzGAMpgfIAJs6PESxiDoHugEMJpKhRRttHR1dXV2UJ0HAHyJgWylJ9LC398Q5cxoaYOfiHlhdWMJs5bAc3Ex6id1JOWsB5C/JOEPWNc0tFhGciisCBa2q6rzTTw+KRd22p06d2tjYKJJNWVumyTAdMPCOwHVRosQ/kmlHcNQfQlKfBBtH1s606dOnTJmybcvmXEMD+KdMncqbyv39HZ3TTj+jC03uO7CfBMzkqVOa21srbhlviiql1ta2hkIBJog4ECnnzDMmdLSTodRtc/LUyVhlnu2pqjJ//mkzZnT2Foue5/b39x3cuweVOoXcxEkdnu/SGvtac/mcnXPaOtqZS3puhVk4hox0xkSalfNZN/BgjZnSQKIjszBktNizZw+yv+KKKzzPI4PG88uWLZszZ85xxx2HLPbv38/JpEmTmpqa1q9f/8brr3edffbck+egJ3q2evXq7m7/0ksXu77X09Pjuu7FF1+Ma9FI9959L7300rx583hjZ2cnQWXBggWP/OIXp5xyyllnnUVNvOOJJ1bkcrmLLrqoUqk0NjcVi8Xljz5KzXS2NSbG4cK65lpVIAajaRJj45jeDwwM5Jqa6Bkj/s9+9jPsJgi9zenxyEM/bmjIn3jirJdeepGpxPTpUzsmdZxyykmPPLps6U8fYlN4b8+BfB7OZq5a+fSzv1y1cOEF27dvfej+b2EaFe7u27Nz5/Znnnn6hScemzpt8sGe/XbO6uo6DWz/56Ef4/yTJ08mHJDIRFgrV66UwENpGpCG0dQ5qwuS+kKCEZSuS4xhY2w+/+abb/KygwcP7t60CZ8RU3ZdtIdmFNueMWMGSjvnnHOmT5++d+/eWbNmbty4YWDPHtwV8XNr2rRpW7ZsKe7bN72zE6W99MILCi4dhvI4Q30uJyetrc3Nzbt37z7hhBO2b9/evWMHPejv70d1tI88B3fv5tW9vb1ZUKyDa1RxXZAiJGJaOjDExSLYMFH0OWHCBEASD1AsL6YCIDFUpgbEgrVr1y5bunTFihUb1q3Dlujo7K6uyy+/HGmUi8WWlpZB5hcmi1UWsqMjrRMmzJ07d+/e7paWNh4vF0sEJNRVKpXQG2IFPLGgo6MD/FVsponUsCnBkXpj1ehG4Rp1URck2mNwoy5RUcnn6V+ZkyDgBLmSzsDx+vr6oNh8Ll68+MSuLhAuXLjwuiVLFi1ahFWvW/ey63rgRCjySJLwrIjDNFEUGK7/4yW45cAAwAdRLF2/5rrrECIgURT+397efu3115933nlr1qzBdXkjTelNTa2trVgKEqeRUWjqXKj1kstglIUAxMs4HkXInqM4MNDc0oSYw3J5wpQpdIUB0LAsIv6+ffvcwcGGVqYTLfSPcnkjQ3wQLfzAB4qlQUILdijPwn4gABZ54/YDB7tZOXIrFUCCgZeiseaWFmwEctPY3k60Exn092PNKBZBY95t7e2U8TpGuCxhhwjeBnAkrasLUsyVR2sPM6LLkCVZQ+miuGvq9BAx4Qycp5qXcAcBzNskmi648Lz+vmJrUyPTy5/9/F99DAHTgMSQ2oPfMjW0bU+s14ZLSJDEfiNFtw1YFFYqpijBkwE/RiQ0H5TLDKryasqzCgJFzH6on0NQR4KsP05CnWxbOs14nbKzbFAR6pomD1nKsvMFaBzMTXKtzDIp559lC8PUSECH06d38tZ/e+75wcGSblrC8Sw77C8a+QZIaeSTnjN01gjCUHccy7AogX+rlEClmBDLXq2EHx1Frs+0KldogHQxoMESeREVaCRzy0NBDiEXRdUzVyph8VgdgyS2lGB4/BQq5ejEDQCIqrFJJJrWhP1AYkUoNbmSYk21HeOEdIXWAG80NElMTplG4JOwAZRJa2IOKIWkLr9LITfLu+CPMmHUYM7iO6n9S6RApWywSONFZm5Db+Rk6BipybpkoFobGk2WnlEEpsJ5iiHAV5knMUtKZ0sR81es07ToNCaNIJC3PI6O8qx5MF1QSRNDx0AYelimjEvselAtR4pdeK/kW3lWniPxbrNGQuYWI5J2gE6D1MGNJQrK2pYhVZGyQK0SMmm2zlE3OvF6DuDx7vSUJD8TIJlPIH4kTNcFJz6WSp32s2iM7LFw/I06qAi5oApaMByHK+Dhi9IZfvCWejUlWd9I6vCuzPwoEaVhujINkKBCs4xhMpmk/XTjiTR1hNFVuehGmpD5xNAhay3pAplIKZNCGrvSZRbyvUMVj4UTpDLcjZEo0lIKkFFdTQ4/OXSWgh+6OtZPMAr+0FNCyiSVBMkgrqtbNVONjdCs1MyqMWM61rBliz/VXmULROkF2NJ+i1sduSZHoz7WsNbpT+bPteiaLvSxUWqocs28M9VJebbv9MhWBIeaeddPWOgd8x2EYMrFAsejyTGbOvqFEloONbIsRtZ6V9Nkdj1CTZANymrPp9KqhrFhbdcaOZrf1fh/CE6G7poKxT5TMEezn+/Su9NsYxpd2XIA7RT2IL9Whm3wiQSEAxC3uEAKQ6pDn2M7wLvUzSNplpUiiIKMDtBGQioZnTQzJuOHbP4hYZsYPtsO+Jk2/svKLllgOCTnpPdrRORtb8ri1dsKj+Il2U3oFBSfXDjdII1IyjBlVyGqFEo8OEg2NWCriVA35nke24YcNmKw/DdWv0Wl2fgz1t2jU8aCLGye9C9Kg+/JBoo0P4xtGqwuQDbbmrRJkzpCz0MSjux6RMdRWCLDOzogHZ3+H9FbZYbJtAF6TNqSZE1KqrFKjV00LAf3Hfzwf7pW+/Rf38w+aNa0ZUej/DKDXVR59rNmNp0aNqdonmVJ2QWOuR5TRxom2B7NCgSMPwoDl5S9bepsdyr3Hrz08ss+cv1l6i+95LHHnr/73nvCGIpvM6cJvIBc/+gIk0XorGwoDh2RpN/1Ssy5MFR2rDPRU9nSx+/iZJ4WVAbPWfDeWz7z6fZWXX28Lyk0Ks/92+bb/+HO/t4+u7GFJad0s96hYATqseaTmBUYiShElRzKZDtUsQ/Mixdd+MlP/FVLs8peMPXJATFpUg2kt7/3v3+08pnV/mBZsQuMLQwmo/UgIMW9j6UDoXPghKwRyn4Qz+08afZ1V195zVXnR76kZvkBvvpsr8wP5TcCLCvllHUbtj75zJrfrH11T3dPSMojYi8nfsqiqJbIrvqMCB0rKOmPrIXx30U4DS3tLdOPP+59F561+Pz3TGrLBaVYi7Uo3bf1/wCARyud9uxDLAAAAABJRU5ErkJggg==;" vertex="1" parent="1">
          <mxGeometry x="720" y="607.75" width="76" height="81" as="geometry" />
        </mxCell>
        <mxCell id="kM9Xeybq4EzYfr0AlQyo-24" style="edgeStyle=orthogonalEdgeStyle;rounded=0;orthogonalLoop=1;jettySize=auto;html=1;startArrow=open;startFill=0;endArrow=open;endFill=0;strokeWidth=2;strokeColor=#808080;entryX=1;entryY=0.5;entryDx=0;entryDy=0;entryPerimeter=0;" edge="1" parent="1" source="kM9Xeybq4EzYfr0AlQyo-25" target="kM9Xeybq4EzYfr0AlQyo-5">
          <mxGeometry relative="1" as="geometry">
            <Array as="points">
              <mxPoint x="539" y="400" />
            </Array>
            <mxPoint x="640" y="400" as="sourcePoint" />
            <mxPoint x="230.00041491013985" y="526" as="targetPoint" />
          </mxGeometry>
        </mxCell>
        <mxCell id="kM9Xeybq4EzYfr0AlQyo-25" value="Subnet" style="outlineConnect=0;gradientColor=none;html=1;whiteSpace=wrap;fontSize=12;fontStyle=0;shape=mxgraph.aws4.group;grIcon=mxgraph.aws4.group_subnet;strokeColor=#879196;fillColor=none;verticalAlign=top;align=left;spacingLeft=30;fontColor=#879196;dashed=0;" vertex="1" parent="1">
          <mxGeometry x="630" y="241.75" width="200" height="248.25" as="geometry" />
        </mxCell>
        <mxCell id="kM9Xeybq4EzYfr0AlQyo-26" value="Subnet" style="outlineConnect=0;gradientColor=none;html=1;whiteSpace=wrap;fontSize=12;fontStyle=0;shape=mxgraph.aws4.group;grIcon=mxgraph.aws4.group_subnet;strokeColor=#879196;fillColor=none;verticalAlign=top;align=left;spacingLeft=30;fontColor=#879196;dashed=0;" vertex="1" parent="1">
          <mxGeometry x="630" y="552.88" width="200" height="248.25" as="geometry" />
        </mxCell>
        <mxCell id="kM9Xeybq4EzYfr0AlQyo-27" style="edgeStyle=orthogonalEdgeStyle;rounded=0;orthogonalLoop=1;jettySize=auto;html=1;startArrow=open;startFill=0;endArrow=open;endFill=0;strokeWidth=2;strokeColor=#808080;" edge="1" parent="1" source="kM9Xeybq4EzYfr0AlQyo-26">
          <mxGeometry relative="1" as="geometry">
            <Array as="points">
              <mxPoint x="549" y="677" />
            </Array>
            <mxPoint x="650" y="410" as="sourcePoint" />
            <mxPoint x="540" y="440" as="targetPoint" />
          </mxGeometry>
        </mxCell>
        <mxCell id="kM9Xeybq4EzYfr0AlQyo-29" style="edgeStyle=orthogonalEdgeStyle;rounded=0;orthogonalLoop=1;jettySize=auto;html=1;startArrow=open;startFill=0;endArrow=open;endFill=0;strokeWidth=2;strokeColor=#808080;" edge="1" parent="1" source="kM9Xeybq4EzYfr0AlQyo-32" target="kM9Xeybq4EzYfr0AlQyo-18">
          <mxGeometry relative="1" as="geometry">
            <Array as="points">
              <mxPoint x="995" y="600" />
              <mxPoint x="889" y="600" />
              <mxPoint x="889" y="677" />
            </Array>
            <mxPoint x="810" y="430" as="sourcePoint" />
            <mxPoint x="549" y="455.5" as="targetPoint" />
          </mxGeometry>
        </mxCell>
        <mxCell id="kM9Xeybq4EzYfr0AlQyo-30" value="&lt;div&gt;Cross Backup Region&lt;/div&gt;&lt;div&gt;&lt;br&gt;&lt;/div&gt;" style="edgeLabel;html=1;align=center;verticalAlign=middle;resizable=0;points=[];" vertex="1" connectable="0" parent="kM9Xeybq4EzYfr0AlQyo-29">
          <mxGeometry x="-0.2545" y="-2" relative="1" as="geometry">
            <mxPoint y="10" as="offset" />
          </mxGeometry>
        </mxCell>
        <mxCell id="kM9Xeybq4EzYfr0AlQyo-32" value="Region" style="outlineConnect=0;gradientColor=none;html=1;whiteSpace=wrap;fontSize=12;fontStyle=0;shape=mxgraph.aws4.group;grIcon=mxgraph.aws4.group_region;strokeColor=#879196;fillColor=none;verticalAlign=top;align=left;spacingLeft=30;fontColor=#879196;dashed=1;" vertex="1" parent="1">
          <mxGeometry x="930" y="210" width="130" height="130" as="geometry" />
        </mxCell>
      </root>
    </mxGraphModel>
  </diagram>
</mxfile>
